<?xml version="1.0" encoding="utf-8"?>
<!-- Generator: Adobe Illustrator 25.4.1, SVG Export Plug-In . SVG Version: 6.00 Build 0)  -->
<svg version="1.1" id="圖層_1" xmlns="http://www.w3.org/2000/svg" xmlns:xlink="http://www.w3.org/1999/xlink" x="0px" y="0px"
	 viewBox="0 0 5442.52 3061.42" style="enable-background:new 0 0 5442.52 3061.42;" xml:space="preserve">
<style type="text/css">
	.st0{fill:#FFFFFF;}
</style>
<g>
	<path class="st0" d="M1277.54,381.39c252.41,0,458.88,76.72,619.26,230.29c160.38,153.43,240.64,345.01,240.64,574.73
		c0,295.52-92.88,544.38-278.5,746.31S1427,2235.62,1120,2235.62c-249.15,0-453.2-81.4-611.88-244.33
		c-158.82-162.79-238.23-358.34-238.23-586.22c0-153.86,38.29-311.83,114.86-473.91s191.72-294.1,345.72-396.34
		C884.18,432.44,1066.68,381.39,1277.54,381.39z M1270.17,2140.18c123.79,0,245.89-33.18,366.42-99.55
		c120.53-66.36,215.4-157.83,284.6-274.25c69.2-116.42,103.8-236.1,103.8-359.05c0-174.28-46.65-332.67-139.82-475.18
		c-93.31-142.51-214.12-254.11-362.73-334.66c-148.61-80.69-286.02-120.96-412.22-120.96c-178.39,0-340.19,67.21-485.54,201.5
		s-217.95,301.33-217.95,500.71c0,254.82,88.77,478.73,266.31,671.72C850.43,2043.76,1049.52,2140.18,1270.17,2140.18z"/>
	<path class="st0" d="M2321.74,425.53v-18.29h513.05c182.36,0,314.95,20.42,397.62,61.12c82.67,40.7,142.94,91.46,180.8,152.3
		c37.86,60.69,56.86,140.81,56.86,240.36c0,152.44-52.47,267.02-157.54,343.73c-105.08,76.57-247.59,113.3-427.54,110.04v-18.29
		c114.01,0,206.61-35.03,277.94-105.08c71.19-70.05,106.92-162.08,106.92-276.09c0-88.77-17.3-167.47-51.9-236.39
		c-34.6-68.77-83.24-121.1-145.92-156.98s-158.39-53.74-287.01-53.74h-128.19v1539.14c0,87.07,9.78,138.97,29.35,155.56
		c19.57,16.73,56.58,24.96,111.17,24.96v18.29h-475.18v-18.29c84.66,0,127.06-38.71,127.06-116V582.94
		c0-63.39-8.08-105.5-24.39-126.35C2407.96,435.89,2373.78,425.53,2321.74,425.53z"/>
	<path class="st0" d="M4509.2,430.36l85.51,224.76l-14.61,2.41c0-0.85-22.55-24.82-67.78-72.04
		c-45.24-47.22-96.85-83.66-155.13-109.33s-123.94-38.43-197.25-38.43c-122.94,0-220.5,35.17-292.54,105.64
		c-72.04,70.48-108.05,155.27-108.05,254.68c0,65.94,16.87,123.51,50.62,172.86s104.37,95.15,211.71,137.83
		c184.63,62.25,311.12,109.05,379.18,140.39c68.07,31.34,133.58,84.37,196.82,159.25c63.1,74.87,94.72,170.87,94.72,288
		c0,48.78-5.67,95.43-17.16,139.68c-11.34,44.38-29.78,87.07-55.02,128.05c-25.24,41.12-55.59,78.56-91.04,112.31
		c-35.45,33.75-71.47,59.42-108.05,76.86c-36.59,17.44-94.44,30.63-173.43,39.71c-78.98,8.93-131.17,13.47-156.27,13.47h-480
		v-522.83h18.29c1.56,173.43,42.26,294.38,122.09,362.73c79.84,68.35,203.91,102.67,372.52,102.67
		c153.01,0,269.28-36.16,348.69-108.76c79.41-72.46,119.11-159.53,119.11-261.34c0-61.83-13.9-114.58-41.55-158.11
		c-27.65-43.53-66.36-81.82-116-114.86c-49.63-33.04-143.65-73.17-282.05-120.67c-137.55-48.35-234.26-90.61-289.99-126.77
		c-55.87-36.16-102.52-90.75-139.96-163.5c-37.44-72.75-56.3-147.05-56.3-222.77c0-139.11,47.79-255.81,143.51-350.25
		c95.72-94.3,221.21-141.52,376.77-141.52c60.27,0,125.35,6.95,195.41,20.7c70.05,13.9,109.05,22.83,117.27,26.8
		C4502.68,429.65,4505.94,430.36,4509.2,430.36z"/>
</g>
<g>
	<path class="st0" d="M399.35,2551.1c-7.09-6.91-15.4-12.13-24.92-15.87c-9.43-3.73-19.79-5.6-31.08-5.6
		c-11.39,0-21.93,1.87-31.45,5.69c-9.61,3.83-17.92,9.15-24.92,15.96c-7,6.91-12.51,14.84-16.43,23.99
		c-3.92,9.15-5.88,19.13-5.88,29.96c0,10.83,1.96,20.81,5.88,29.96c3.92,9.15,9.43,17.17,16.43,23.99c7,6.81,15.4,12.13,25.01,15.96
		c9.71,3.83,20.07,5.69,31.36,5.69c11.29,0,21.65-1.87,31.08-5.6c9.52-3.73,17.83-9.05,24.92-15.87
		c7.09-6.91,12.6-14.84,16.43-23.98c3.83-9.15,5.79-19.13,5.79-30.14c0-10.92-1.96-21-5.79-30.14
		C411.95,2565.94,406.44,2557.91,399.35,2551.1z M396.17,2627.91c-2.89,6.91-6.91,12.88-12.04,18.01s-11.11,9.15-18.11,11.95
		c-7,2.8-14.56,4.2-22.68,4.2c-8.31,0-15.96-1.4-22.87-4.2c-7-2.8-13.07-6.81-18.29-11.95c-5.23-5.13-9.24-11.11-12.13-18.01
		c-2.89-6.91-4.29-14.47-4.29-22.59s1.4-15.68,4.29-22.59c2.89-6.91,6.91-12.88,12.13-18.01c5.23-5.13,11.29-9.15,18.29-11.95
		c6.91-2.8,14.56-4.2,22.87-4.2c8.12,0,15.68,1.4,22.68,4.2c6.91,2.8,12.97,6.81,18.11,11.95c5.13,5.13,9.15,11.11,12.04,18.01
		c2.89,6.91,4.29,14.47,4.29,22.59C400.47,2613.53,399.07,2621,396.17,2627.91z"/>
	<path class="st0" d="M586.84,2537.66c-9.15-4.11-20.16-6.16-33.13-6.16h-57.58v147.64v0.09h21.09v-44.7h36.49
		c12.97,0,23.99-2.15,33.13-6.25c9.15-4.2,16.15-10.08,21.09-17.73c4.95-7.65,7.37-16.8,7.37-27.53c0-10.64-2.43-19.88-7.37-27.62
		C602.99,2547.64,595.99,2541.77,586.84,2537.66z M583.76,2607.37c-7,5.79-17.17,8.68-30.7,8.68h-35.84v-66.26h35.84
		c13.53,0,23.71,2.89,30.7,8.68c7,5.79,10.45,13.91,10.45,24.45C594.21,2593.47,590.76,2601.59,583.76,2607.37z"/>
	<polygon class="st0" points="709.57,2613.16 783.67,2613.16 783.67,2595.24 709.57,2595.24 709.57,2549.88 792.72,2549.88 
		792.72,2531.5 688.47,2531.5 688.47,2679.14 795.61,2679.14 795.61,2660.76 709.57,2660.76 	"/>
	<path class="st0" d="M962.76,2628.19c9.15-4.11,16.15-9.99,21.09-17.64c4.95-7.65,7.37-16.8,7.37-27.53
		c0-16.24-5.41-28.84-16.43-37.89c-11.01-9.05-26.04-13.63-45.17-13.63h-57.58v147.64v0.09h21.09v-44.89h36.49
		c3.29,0,6.46-0.14,9.5-0.4l31.65,45.2h23.05l-35.01-49.37C960.18,2629.28,961.49,2628.76,962.76,2628.19z M928.98,2616.24h-35.84
		v-66.45h35.84c13.53,0,23.71,2.89,30.7,8.68c7,5.79,10.45,13.91,10.45,24.45c0,10.55-3.45,18.67-10.45,24.54
		C952.68,2613.35,942.51,2616.24,928.98,2616.24z"/>
	<path class="st0" d="M1112.18,2531.5l-66.92,147.64h21.75l16.2-36.86h78.65l16.2,36.86h22.12l-67.1-147.64H1112.18z
		 M1090.64,2625.39l31.9-72.57l31.9,72.57H1090.64z"/>
	<polygon class="st0" points="1235.56,2549.79 1286.23,2549.79 1286.23,2679.14 1307.05,2679.14 1307.05,2549.79 1357.72,2549.79 
		1357.72,2531.41 1235.56,2531.41 	"/>
	<rect x="1422.87" y="2531.5" class="st0" width="21.09" height="147.64"/>
	<path class="st0" d="M1653.2,2551.1c-7.09-6.91-15.4-12.13-24.92-15.87c-9.43-3.73-19.79-5.6-31.08-5.6
		c-11.39,0-21.93,1.87-31.45,5.69c-9.61,3.83-17.92,9.15-24.92,15.96c-7,6.91-12.51,14.84-16.43,23.99
		c-3.92,9.15-5.88,19.13-5.88,29.96c0,10.83,1.96,20.81,5.88,29.96c3.92,9.15,9.43,17.17,16.43,23.99c7,6.81,15.4,12.13,25.01,15.96
		c9.71,3.83,20.07,5.69,31.36,5.69c11.2,0,21.56-1.87,31.08-5.6c9.52-3.73,17.83-9.05,24.92-15.87c7.09-6.91,12.6-14.84,16.43-23.98
		c3.83-9.15,5.79-19.13,5.79-30.14c0-10.92-1.96-21-5.79-30.14C1665.8,2565.94,1660.29,2557.91,1653.2,2551.1z M1650.02,2627.91
		c-2.89,6.91-6.91,12.88-12.04,18.01s-11.11,9.15-18.11,11.95c-7,2.8-14.56,4.2-22.68,4.2c-8.31,0-15.96-1.4-22.87-4.2
		c-7-2.8-13.07-6.81-18.29-11.95s-9.24-11.11-12.13-18.01s-4.29-14.47-4.29-22.59s1.4-15.68,4.29-22.59s6.91-12.88,12.13-18.01
		c5.23-5.13,11.29-9.15,18.29-11.95c6.91-2.8,14.56-4.2,22.87-4.2c8.12,0,15.68,1.4,22.68,4.2c6.91,2.8,12.97,6.81,18.11,11.95
		c5.13,5.13,9.15,11.11,12.04,18.01c2.89,6.91,4.29,14.47,4.29,22.59C1654.32,2613.53,1652.92,2621,1650.02,2627.91z"/>
	<polygon class="st0" points="1855.81,2641.58 1767.15,2531.5 1749.88,2531.5 1749.88,2679.14 1770.98,2679.14 1770.98,2569.06 
		1859.64,2679.14 1876.9,2679.14 1876.9,2531.5 1855.81,2531.5 	"/>
	<path class="st0" d="M2046.2,2608.03c-5.32-2.99-11.11-5.32-17.55-7.19c-6.44-1.77-12.79-3.45-19.13-4.95
		c-6.35-1.49-12.13-3.08-17.45-4.95c-5.32-1.77-9.61-4.29-12.88-7.37c-3.27-3.08-4.95-7.19-4.95-12.41c0-4.39,1.31-8.31,3.73-11.85
		c2.43-3.45,6.35-6.25,11.67-8.4c5.32-2.15,12.13-3.17,20.44-3.17c6.63,0,13.44,1.03,20.44,2.89c7.09,1.87,13.72,4.95,20.07,9.15
		l7-16.89c-6.16-4.2-13.53-7.47-21.93-9.71c-8.49-2.24-16.99-3.36-25.57-3.36c-12.88,0-23.52,1.96-31.92,5.79
		c-8.4,3.83-14.56,8.96-18.57,15.4c-4.01,6.44-5.97,13.44-5.97,21c0,7.93,1.59,14.37,4.85,19.32c3.27,5.04,7.47,8.96,12.79,11.95
		c5.32,2.99,11.11,5.41,17.55,7.28c6.44,1.87,12.79,3.55,19.13,4.95c6.25,1.4,12.04,3.08,17.36,4.95c5.32,1.87,9.61,4.39,12.88,7.47
		c3.27,3.08,4.95,7.19,4.95,12.23c0,4.29-1.31,8.21-3.83,11.67c-2.61,3.45-6.53,6.16-11.85,8.12c-5.32,1.96-12.32,2.99-20.91,2.99
		c-9.43,0-18.57-1.59-27.25-4.85c-8.77-3.27-15.96-7.28-21.56-12.23l-7.84,16.43c5.88,5.51,14,9.99,24.27,13.44s21,5.13,32.29,5.13
		c12.97,0,23.71-1.96,32.38-5.79c8.49-3.83,14.75-8.96,18.85-15.4c4.11-6.44,6.16-13.35,6.16-20.81c0-7.65-1.59-14-4.85-18.95
		C2055.72,2614.93,2051.52,2611.01,2046.2,2608.03z"/>
	<path class="st0" d="M2326.27,2537.66c-9.15-4.11-20.16-6.16-33.13-6.16h-57.58v147.64v0.09h21.09v-44.7h36.49
		c12.97,0,23.98-2.15,33.13-6.25c9.15-4.2,16.15-10.08,21.09-17.73c4.95-7.65,7.37-16.8,7.37-27.53c0-10.64-2.43-19.88-7.37-27.62
		C2342.42,2547.64,2335.42,2541.77,2326.27,2537.66z M2323.19,2607.37c-7,5.79-17.17,8.68-30.7,8.68h-35.84v-66.26h35.84
		c13.53,0,23.71,2.89,30.7,8.68c7,5.79,10.45,13.91,10.45,24.45C2333.65,2593.47,2330.19,2601.59,2323.19,2607.37z"/>
	<path class="st0" d="M2518.71,2628.19c9.15-4.11,16.15-9.99,21.09-17.64c4.95-7.65,7.37-16.8,7.37-27.53
		c0-16.24-5.41-28.84-16.43-37.89c-11.01-9.05-26.04-13.63-45.17-13.63H2428v147.64v0.09h21.09v-44.89h36.49
		c3.29,0,6.46-0.14,9.5-0.4l31.65,45.2h23.05l-35.01-49.37C2516.13,2629.28,2517.44,2628.76,2518.71,2628.19z M2484.93,2616.24
		h-35.84v-66.45h35.84c13.53,0,23.71,2.89,30.7,8.68c7,5.79,10.45,13.91,10.45,24.45c0,10.55-3.45,18.67-10.45,24.54
		C2508.63,2613.35,2498.46,2616.24,2484.93,2616.24z"/>
	<polygon class="st0" points="2644.61,2613.16 2718.71,2613.16 2718.71,2595.24 2644.61,2595.24 2644.61,2549.88 2727.77,2549.88 
		2727.77,2531.5 2623.52,2531.5 2623.52,2679.14 2730.66,2679.14 2730.66,2660.76 2644.61,2660.76 	"/>
	<path class="st0" d="M2889.78,2608.03c-5.32-2.99-11.11-5.32-17.55-7.19c-6.44-1.77-12.79-3.45-19.13-4.95
		c-6.35-1.49-12.13-3.08-17.45-4.95c-5.32-1.77-9.61-4.29-12.88-7.37c-3.27-3.08-4.95-7.19-4.95-12.41c0-4.39,1.31-8.31,3.73-11.85
		c2.43-3.45,6.35-6.25,11.67-8.4c5.32-2.15,12.13-3.17,20.44-3.17c6.63,0,13.44,1.03,20.44,2.89c7.09,1.87,13.72,4.95,20.07,9.15
		l7-16.89c-6.16-4.2-13.53-7.47-21.93-9.71c-8.49-2.24-16.99-3.36-25.57-3.36c-12.88,0-23.52,1.96-31.92,5.79
		c-8.4,3.83-14.56,8.96-18.57,15.4s-5.97,13.44-5.97,21c0,7.93,1.59,14.37,4.85,19.32c3.27,5.04,7.47,8.96,12.79,11.95
		c5.32,2.99,11.11,5.41,17.55,7.28c6.44,1.87,12.79,3.55,19.13,4.95c6.35,1.4,12.13,3.08,17.45,4.95c5.32,1.87,9.61,4.39,12.88,7.47
		c3.27,3.08,4.95,7.19,4.95,12.23c0,4.29-1.31,8.21-3.83,11.67c-2.61,3.45-6.53,6.16-11.85,8.12c-5.32,1.96-12.32,2.99-20.91,2.99
		c-9.43,0-18.57-1.59-27.25-4.85c-8.77-3.27-15.96-7.28-21.56-12.23l-7.84,16.43c5.88,5.51,14,9.99,24.27,13.44
		c10.27,3.45,21,5.13,32.29,5.13c12.97,0,23.71-1.96,32.29-5.79c8.49-3.83,14.75-8.96,18.85-15.4c4.11-6.44,6.16-13.35,6.16-20.81
		c0-7.65-1.59-14-4.85-18.95C2899.3,2614.93,2895.1,2611.01,2889.78,2608.03z"/>
	<polygon class="st0" points="3001.4,2613.16 3075.5,2613.16 3075.5,2595.24 3001.4,2595.24 3001.4,2549.88 3084.56,2549.88 
		3084.56,2531.5 2980.31,2531.5 2980.31,2679.14 3087.45,2679.14 3087.45,2660.76 3001.4,2660.76 	"/>
	<polygon class="st0" points="3269.81,2641.58 3181.15,2531.5 3163.89,2531.5 3163.89,2679.14 3184.98,2679.14 3184.98,2569.06 
		3273.64,2679.14 3290.9,2679.14 3290.9,2531.5 3269.81,2531.5 	"/>
	<path class="st0" d="M3402.9,2564.44c5.23-5.13,11.39-9.05,18.48-11.85c7.19-2.8,14.84-4.2,23.15-4.2c8.03,0,15.59,1.4,22.59,4.29
		c7,2.89,13.35,7.28,18.95,13.16l13.72-13.25c-6.72-7.56-14.93-13.35-24.54-17.17c-9.61-3.83-20.16-5.79-31.54-5.79
		c-11.2,0-21.56,1.87-31.08,5.6c-9.52,3.73-17.83,9.05-24.83,15.87c-7,6.91-12.51,14.84-16.43,23.99
		c-3.92,9.15-5.88,19.13-5.88,30.14c0,10.92,1.96,21,5.88,30.14c3.92,9.15,9.33,17.17,16.33,23.99
		c6.91,6.91,15.12,12.13,24.64,15.87c9.43,3.73,19.79,5.6,31.08,5.6c11.57,0,22.12-1.96,31.83-6.16
		c9.61-3.92,17.83-9.71,24.54-17.27l-13.72-13.25c-5.6,6.07-11.95,10.55-18.95,13.44c-7,2.89-14.56,4.29-22.59,4.29
		c-8.31,0-16.05-1.4-23.15-4.2c-7.09-2.89-13.25-6.81-18.48-11.85c-5.23-5.04-9.24-11.01-12.13-18.01c-2.89-7-4.29-14.56-4.29-22.68
		s1.4-15.68,4.29-22.68C3393.66,2575.55,3397.67,2569.48,3402.9,2564.44z"/>
	<polygon class="st0" points="3591.04,2613.16 3665.15,2613.16 3665.15,2595.24 3591.04,2595.24 3591.04,2549.88 3674.2,2549.88 
		3674.2,2531.5 3569.95,2531.5 3569.95,2679.14 3677.09,2679.14 3677.09,2660.76 3591.04,2660.76 	"/>
	<path class="st0" d="M3935.23,2608.03c-5.32-2.99-11.11-5.32-17.55-7.19c-6.44-1.77-12.79-3.45-19.13-4.95
		c-6.35-1.49-12.13-3.08-17.45-4.95c-5.32-1.77-9.61-4.29-12.88-7.37c-3.27-3.08-4.95-7.19-4.95-12.41c0-4.39,1.31-8.31,3.73-11.85
		c2.43-3.45,6.35-6.25,11.67-8.4c5.32-2.15,12.13-3.17,20.44-3.17c6.63,0,13.44,1.03,20.44,2.89c7.09,1.87,13.72,4.95,20.06,9.15
		l7-16.89c-6.16-4.2-13.53-7.47-21.93-9.71c-8.49-2.24-16.99-3.36-25.57-3.36c-12.88,0-23.52,1.96-31.92,5.79
		c-8.4,3.83-14.56,8.96-18.57,15.4c-4.01,6.44-5.97,13.44-5.97,21c0,7.93,1.59,14.37,4.85,19.32c3.27,5.04,7.47,8.96,12.79,11.95
		c5.32,2.99,11.11,5.41,17.55,7.28c6.44,1.87,12.79,3.55,19.13,4.95c6.25,1.4,12.04,3.08,17.36,4.95c5.32,1.87,9.61,4.39,12.88,7.47
		s4.95,7.19,4.95,12.23c0,4.29-1.31,8.21-3.83,11.67c-2.61,3.45-6.53,6.16-11.85,8.12c-5.32,1.96-12.32,2.99-20.91,2.99
		c-9.43,0-18.57-1.59-27.25-4.85c-8.77-3.27-15.96-7.28-21.56-12.23l-7.84,16.43c5.88,5.51,14,9.99,24.27,13.44
		c10.27,3.45,21,5.13,32.29,5.13c12.97,0,23.71-1.96,32.38-5.79c8.49-3.83,14.75-8.96,18.85-15.4c4.11-6.44,6.16-13.35,6.16-20.81
		c0-7.65-1.59-14-4.85-18.95C3944.75,2614.93,3940.55,2611.01,3935.23,2608.03z"/>
	<polygon class="st0" points="4046.76,2613.16 4120.86,2613.16 4120.86,2595.24 4046.76,2595.24 4046.76,2549.88 4129.92,2549.88 
		4129.92,2531.5 4025.67,2531.5 4025.67,2679.14 4132.81,2679.14 4132.81,2660.76 4046.76,2660.76 	"/>
	<path class="st0" d="M4299.96,2628.19c9.15-4.11,16.15-9.99,21.09-17.64c4.95-7.65,7.37-16.8,7.37-27.53
		c0-16.24-5.41-28.84-16.43-37.89c-11.01-9.05-26.04-13.63-45.17-13.63h-57.58v147.64v0.09h21.09v-44.89h36.49
		c3.29,0,6.46-0.14,9.5-0.4l31.65,45.2h23.05l-35.01-49.37C4297.37,2629.28,4298.69,2628.76,4299.96,2628.19z M4266.17,2616.24
		h-35.84v-66.45h35.84c13.53,0,23.71,2.89,30.7,8.68c7,5.79,10.45,13.91,10.45,24.45c0,10.55-3.45,18.67-10.45,24.54
		S4279.71,2616.24,4266.17,2616.24z"/>
	<polygon class="st0" points="4458.45,2652.9 4405.23,2531.5 4382.46,2531.5 4447.41,2679.14 4468.32,2679.14 4533.09,2531.5 
		4512,2531.5 	"/>
	<rect x="4594.03" y="2531.5" class="st0" width="21.09" height="147.64"/>
	<path class="st0" d="M4727.21,2564.44c5.23-5.13,11.39-9.05,18.48-11.85c7.19-2.8,14.84-4.2,23.14-4.2c8.03,0,15.59,1.4,22.59,4.29
		c7,2.89,13.35,7.28,18.94,13.16l13.72-13.25c-6.72-7.56-14.93-13.35-24.54-17.17c-9.61-3.83-20.16-5.79-31.54-5.79
		c-11.2,0-21.56,1.87-31.08,5.6c-9.52,3.73-17.83,9.05-24.82,15.87c-7,6.91-12.51,14.84-16.43,23.99
		c-3.92,9.15-5.88,19.13-5.88,30.14c0,10.92,1.96,21,5.88,30.14c3.92,9.15,9.33,17.17,16.33,23.99
		c6.91,6.91,15.12,12.13,24.64,15.87c9.43,3.73,19.79,5.6,31.08,5.6c11.48,0,22.12-1.96,31.82-6.16
		c9.61-3.92,17.83-9.71,24.54-17.27l-13.72-13.25c-5.6,6.07-11.95,10.55-18.94,13.44c-7,2.89-14.56,4.29-22.59,4.29
		c-8.31,0-16.05-1.4-23.14-4.2c-7.09-2.89-13.25-6.81-18.48-11.85c-5.23-5.04-9.24-11.01-12.13-18.01c-2.89-7-4.29-14.56-4.29-22.68
		s1.4-15.68,4.29-22.68C4717.97,2575.55,4721.98,2569.48,4727.21,2564.44z"/>
	<polygon class="st0" points="4915.36,2613.16 4989.46,2613.16 4989.46,2595.24 4915.36,2595.24 4915.36,2549.88 4998.51,2549.88 
		4998.51,2531.5 4894.27,2531.5 4894.27,2679.14 5001.4,2679.14 5001.4,2660.76 4915.36,2660.76 	"/>
	<path class="st0" d="M5173.31,2619.88c-3.27-4.95-7.47-8.87-12.79-11.85c-5.32-2.99-11.11-5.32-17.55-7.19
		c-6.44-1.77-12.79-3.45-19.13-4.95c-6.25-1.49-12.04-3.08-17.36-4.95c-5.32-1.77-9.61-4.29-12.88-7.37
		c-3.27-3.08-4.95-7.19-4.95-12.41c0-4.39,1.31-8.31,3.73-11.85c2.43-3.45,6.35-6.25,11.67-8.4c5.32-2.15,12.13-3.17,20.44-3.17
		c6.63,0,13.44,1.03,20.44,2.89c7.09,1.87,13.72,4.95,20.06,9.15l7-16.89c-6.16-4.2-13.53-7.47-21.93-9.71
		c-8.49-2.24-16.99-3.36-25.57-3.36c-12.88,0-23.52,1.96-31.92,5.79c-8.4,3.83-14.56,8.96-18.57,15.4c-4.01,6.44-5.97,13.44-5.97,21
		c0,7.93,1.59,14.37,4.85,19.32c3.27,5.04,7.47,8.96,12.79,11.95c5.32,2.99,11.11,5.41,17.55,7.28c6.44,1.87,12.79,3.55,19.13,4.95
		c6.25,1.4,12.04,3.08,17.36,4.95c5.32,1.87,9.61,4.39,12.88,7.47c3.27,3.08,4.95,7.19,4.95,12.23c0,4.29-1.31,8.21-3.83,11.67
		c-2.61,3.45-6.53,6.16-11.85,8.12c-5.32,1.96-12.32,2.99-20.9,2.99c-9.43,0-18.57-1.59-27.25-4.85
		c-8.77-3.27-15.96-7.28-21.56-12.23l-7.84,16.43c5.88,5.51,14,9.99,24.27,13.44c10.27,3.45,21,5.13,32.29,5.13
		c12.97,0,23.61-1.96,32.29-5.79c8.49-3.83,14.75-8.96,18.85-15.4c4.11-6.44,6.16-13.35,6.16-20.81
		C5178.17,2631.17,5176.58,2624.83,5173.31,2619.88z"/>
</g>
</svg>
