<?xml version="1.0" encoding="utf-8"?>
<!-- Generator: Adobe Illustrator 25.4.1, SVG Export Plug-In . SVG Version: 6.00 Build 0)  -->
<svg version="1.1" id="圖層_1" xmlns="http://www.w3.org/2000/svg" xmlns:xlink="http://www.w3.org/1999/xlink" x="0px" y="0px"
	 viewBox="0 0 5442.5 3061.4" style="enable-background:new 0 0 5442.5 3061.4;" xml:space="preserve">
<g>
	<g>
		<g>
			<g>
				<path d="M1953.1,1590.9c130.1,0,236.5,39.6,319.1,118.7c82.7,79,124,177.8,124,296.2c0,152.3-47.9,280.5-143.5,384.6
					c-95.7,104-222.6,156.1-380.9,156.1c-128.4,0-233.5-42-315.3-126c-81.9-83.9-122.8-184.6-122.8-302.1
					c0-79.3,19.7-160.7,59.2-244.3c39.5-83.5,98.8-151.5,178.2-204.2C1750.4,1617.3,1844.4,1590.9,1953.1,1590.9z M1949.3,2497.3
					c63.8,0,126.7-17.1,188.8-51.3c62.2-34.2,111.1-81.3,146.7-141.3c35.6-60,53.5-121.7,53.5-185.1c0-89.8-24-171.5-72-244.9
					c-48.1-73.5-110.4-131-186.9-172.5c-76.6-41.6-147.5-62.4-212.5-62.4c-92,0-175.3,34.6-250.2,103.8
					c-74.9,69.2-112.4,155.2-112.4,258.1c0,131.3,45.7,246.7,137.3,346.2C1732.9,2447.6,1835.6,2497.3,1949.3,2497.3z"/>
				<path d="M2491.2,1613.6v-9.4h264.4c94,0,162.4,10.5,204.9,31.5c42.5,20.9,73.7,47.1,93.2,78.5c19.5,31.2,29.3,72.6,29.3,123.9
					c0,78.6-27.1,137.6-81.2,177.2c-54.2,39.5-127.6,58.4-220.4,56.7v-9.4c58.8,0,106.5-18.1,143.3-54.2
					c36.7-36.1,55.1-83.5,55.1-142.3c0-45.7-8.9-86.3-26.8-121.8c-17.9-35.4-42.9-62.4-75.2-80.9c-32.3-18.5-81.7-27.7-147.9-27.7
					h-66.1v793.3c0,44.8,5,71.6,15.1,80.1c10.1,8.7,29.2,12.8,57.3,12.8v9.4h-244.9v-9.4c43.6,0,65.4-20,65.4-59.7v-767.3
					c0-32.7-4.2-54.4-12.6-65.1C2535.7,1619,2518,1613.6,2491.2,1613.6z"/>
				<path d="M3618.5,1616.2l44.1,115.9l-7.6,1.2c0-0.4-11.6-12.8-35-37.2c-23.4-24.3-49.9-43.1-79.9-56.4s-63.9-19.8-101.6-19.8
					c-63.4,0-113.7,18.1-150.7,54.5c-37.2,36.3-55.7,80-55.7,131.2c0,34,8.7,63.7,26.1,89.1c17.4,25.4,53.8,49,109.1,71
					c95.2,32.1,160.4,56.2,195.4,72.4c35.1,16.1,68.8,43.5,101.4,82.1c32.6,38.6,48.8,88,48.8,148.4c0,25.1-3,49.2-8.9,72
					c-5.8,22.9-15.3,44.8-28.4,66c-13,21.2-28.6,40.5-46.9,57.9s-36.8,30.6-55.7,39.6c-18.9,9-48.7,15.8-89.3,20.5
					c-40.7,4.6-67.6,6.9-80.6,6.9h-247.3v-269.5h9.4c0.8,89.3,21.8,151.7,62.9,186.9c41.1,35.2,105.1,53,192,53
					c78.8,0,138.8-18.6,179.7-56c40.9-37.4,61.4-82.2,61.4-134.7c0-31.9-7.1-59.1-21.4-81.5c-14.3-22.5-34.2-42.2-59.7-59.2
					c-25.5-17-74-37.7-145.4-62.2c-70.9-24.9-120.7-46.7-149.4-65.3c-28.8-18.6-52.8-46.8-72.1-84.3
					c-19.3-37.5-29.1-75.8-29.1-114.8c0-71.7,24.7-131.9,74-180.5c49.3-48.6,114-72.9,194.2-72.9c31,0,64.6,3.6,100.8,10.6
					c36.1,7.1,56.2,11.7,60.4,13.8C3615.2,1615.8,3616.9,1616.2,3618.5,1616.2z"/>
			</g>
			<g>
				<path d="M1500.5,2709.1c-3.6-3.5-7.9-6.2-12.8-8.2c-4.8-2-10.2-2.9-16-2.9c-5.9,0-11.3,1-16.2,3c-4.9,2-9.2,4.7-12.8,8.2
					c-3.6,3.5-6.5,7.7-8.4,12.4c-2,4.7-3.1,9.9-3.1,15.5s1,10.7,3.1,15.5c2,4.7,4.8,8.9,8.4,12.4c3.6,3.5,7.9,6.2,12.9,8.2
					s10.3,3,16.1,3s11.2-1,16-2.9c4.9-2,9.2-4.7,12.8-8.2c3.6-3.5,6.5-7.7,8.4-12.4c2-4.7,3-9.9,3-15.6c0-5.6-1-10.9-3-15.6
					C1507,2716.7,1504.1,2712.6,1500.5,2709.1z M1498.9,2748.7c-1.5,3.5-3.5,6.7-6.2,9.3c-2.7,2.6-5.7,4.7-9.3,6.1
					s-7.5,2.2-11.7,2.2c-4.3,0-8.2-0.8-11.8-2.2c-3.6-1.4-6.7-3.5-9.4-6.1c-2.7-2.6-4.7-5.7-6.2-9.3c-1.5-3.5-2.2-7.5-2.2-11.6
					s0.8-8.1,2.2-11.6c1.5-3.5,3.5-6.7,6.2-9.3c2.7-2.6,5.8-4.7,9.4-6.1c3.5-1.4,7.5-2.2,11.8-2.2c4.2,0,8.1,0.8,11.7,2.2
					c3.5,1.4,6.7,3.5,9.3,6.1c2.6,2.6,4.7,5.7,6.2,9.3c1.5,3.5,2.2,7.5,2.2,11.6C1501.1,2741.3,1500.3,2745.1,1498.9,2748.7z"/>
				<path d="M1597.1,2702.2c-4.7-2.1-10.4-3.2-17.1-3.2h-29.7v76.1l0,0h10.9v-23h18.9c6.7,0,12.4-1.1,17.1-3.2
					c4.7-2.2,8.3-5.2,10.9-9.1c2.5-3.9,3.8-8.7,3.8-14.1c0-5.5-1.2-10.2-3.8-14.3C1605.4,2707.3,1601.8,2704.3,1597.1,2702.2z
					 M1595.6,2738.1c-3.6,3-8.9,4.5-15.8,4.5h-18.4v-34.2h18.4c7,0,12.2,1.5,15.8,4.5c3.6,3,5.4,7.1,5.4,12.6
					C1601,2730.9,1599.1,2735.1,1595.6,2738.1z"/>
				<polygon points="1660.4,2741.1 1698.5,2741.1 1698.5,2731.9 1660.4,2731.9 1660.4,2708.4 1703.2,2708.4 1703.2,2699 
					1649.5,2699 1649.5,2775.1 1704.7,2775.1 1704.7,2765.6 1660.4,2765.6 				"/>
				<path d="M1790.8,2748.8c4.7-2.1,8.3-5.2,10.9-9.1c2.5-3.9,3.8-8.7,3.8-14.1c0-8.3-2.7-14.9-8.4-19.5c-5.7-4.7-13.4-7-23.2-7
					h-29.7v76.1l0,0h10.9v-23.1h18.9c1.6,0,3.3-0.1,4.9-0.2l16.3,23.2h11.8l-18.1-25.4C1789.5,2749.4,1790.2,2749.1,1790.8,2748.8z
					 M1773.4,2742.6H1755v-34.2h18.4c7,0,12.2,1.5,15.8,4.5c3.6,3,5.4,7.1,5.4,12.6c0,5.5-1.8,9.6-5.4,12.6
					C1785.7,2741.2,1780.4,2742.6,1773.4,2742.6z"/>
				<path d="M1867.9,2699l-34.5,76.1h11.2l8.3-19h40.6l8.3,19h11.4l-34.5-76.1H1867.9z M1856.7,2747.3l16.4-37.4l16.4,37.4H1856.7z"
					/>
				<polygon points="1931.5,2708.4 1957.6,2708.4 1957.6,2775.1 1968.3,2775.1 1968.3,2708.4 1994.4,2708.4 1994.4,2699 
					1931.5,2699 				"/>
				<rect x="2028" y="2699" width="10.9" height="76.1"/>
				<path d="M2146.7,2709.1c-3.6-3.5-7.9-6.2-12.8-8.2c-4.8-2-10.2-2.9-16-2.9c-5.9,0-11.3,1-16.2,3c-4.9,2-9.2,4.7-12.8,8.2
					c-3.6,3.5-6.5,7.7-8.4,12.4c-2,4.7-3.1,9.9-3.1,15.5s1,10.7,3.1,15.5c2,4.7,4.8,8.9,8.4,12.4c3.6,3.5,7.9,6.2,12.9,8.2
					s10.3,3,16.1,3s11.1-1,16-2.9c4.9-1.9,9.2-4.7,12.8-8.2c3.6-3.5,6.5-7.7,8.4-12.4c2-4.7,3-9.9,3-15.6c0-5.6-1-10.9-3-15.6
					C2153.2,2716.7,2150.3,2712.6,2146.7,2709.1z M2145.1,2748.7c-1.5,3.5-3.5,6.7-6.2,9.3c-2.6,2.6-5.7,4.7-9.3,6.1
					c-3.6,1.4-7.5,2.2-11.7,2.2c-4.3,0-8.2-0.8-11.8-2.2s-6.7-3.5-9.4-6.1c-2.7-2.6-4.7-5.7-6.2-9.3c-1.5-3.5-2.2-7.5-2.2-11.6
					s0.8-8.1,2.2-11.6c1.5-3.5,3.5-6.7,6.2-9.3s5.8-4.7,9.4-6.1c3.5-1.4,7.5-2.2,11.8-2.2c4.2,0,8.1,0.8,11.7,2.2
					c3.5,1.4,6.7,3.5,9.3,6.1c2.6,2.6,4.7,5.7,6.2,9.3c1.5,3.5,2.2,7.5,2.2,11.6C2147.2,2741.3,2146.5,2745.1,2145.1,2748.7z"/>
				<polygon points="2251.1,2755.7 2205.4,2699 2196.5,2699 2196.5,2775.1 2207.3,2775.1 2207.3,2718.4 2253,2775.1 2261.9,2775.1 
					2261.9,2699 2251.1,2699 				"/>
				<path d="M2349.2,2738.5c-2.7-1.5-5.7-2.7-9-3.7c-3.3-0.9-6.6-1.8-9.9-2.5c-3.3-0.8-6.2-1.5-9-2.5c-2.7-0.9-4.9-2.2-6.7-3.8
					c-1.6-1.5-2.5-3.7-2.5-6.4c0-2.3,0.7-4.3,2-6.1c1.2-1.8,3.3-3.2,6-4.3c2.7-1.1,6.2-1.6,10.5-1.6c3.4,0,6.9,0.5,10.5,1.5
					s7,2.5,10.3,4.7l3.6-8.7c-3.2-2.2-7-3.8-11.3-5c-4.4-1.2-8.8-1.8-13.2-1.8c-6.7,0-12.2,1-16.4,3c-4.3,2-7.5,4.6-9.5,7.9
					c-2.1,3.3-3.1,6.9-3.1,10.9c0,4.1,0.8,7.5,2.5,10c1.6,2.6,3.8,4.6,6.6,6.1c2.7,1.5,5.7,2.7,9,3.7c3.3,1,6.6,1.9,9.9,2.5
					c3.2,0.8,6.2,1.5,9,2.5c2.7,1,4.9,2.3,6.7,3.8c1.6,1.5,2.5,3.7,2.5,6.2c0,2.2-0.7,4.3-2,6c-1.3,1.8-3.4,3.2-6.1,4.2
					c-2.7,1-6.4,1.5-10.7,1.5c-4.8,0-9.5-0.8-14-2.5c-4.5-1.6-8.2-3.7-11.1-6.2l-4.1,8.4c3.1,2.9,7.2,5.2,12.5,6.9
					c5.3,1.8,10.9,2.6,16.7,2.6c6.7,0,12.2-1,16.7-3c4.4-2,7.6-4.6,9.8-7.9c2.1-3.3,3.2-6.9,3.2-10.7c0-3.9-0.8-7.2-2.5-9.8
					C2354.1,2742,2351.9,2740,2349.2,2738.5z"/>
				<path d="M2493.6,2702.2c-4.7-2.1-10.4-3.2-17.1-3.2h-29.7v76.1l0,0h10.9v-23h18.9c6.7,0,12.4-1.1,17.1-3.2
					c4.7-2.2,8.3-5.2,10.9-9.1c2.5-3.9,3.8-8.7,3.8-14.1c0-5.5-1.2-10.2-3.8-14.3C2501.9,2707.3,2498.3,2704.3,2493.6,2702.2z
					 M2491.9,2738.1c-3.6,3-8.9,4.5-15.8,4.5h-18.4v-34.2h18.4c7,0,12.2,1.5,15.8,4.5c3.6,3,5.4,7.1,5.4,12.6
					C2497.3,2730.9,2495.5,2735.1,2491.9,2738.1z"/>
				<path d="M2592.7,2748.8c4.7-2.1,8.3-5.2,10.9-9.1c2.5-3.9,3.8-8.7,3.8-14.1c0-8.3-2.7-14.9-8.4-19.5c-5.7-4.7-13.4-7-23.2-7
					H2546v76.1l0,0h10.9v-23.1h18.9c1.6,0,3.3-0.1,4.9-0.2l16.3,23.2h11.8l-18.1-25.4C2591.4,2749.4,2592,2749.1,2592.7,2748.8z
					 M2575.4,2742.6h-18.4v-34.2h18.4c7,0,12.2,1.5,15.8,4.5c3.6,3,5.4,7.1,5.4,12.6c0,5.5-1.8,9.6-5.4,12.6
					C2587.5,2741.2,2582.3,2742.6,2575.4,2742.6z"/>
				<polygon points="2657.6,2741.1 2695.7,2741.1 2695.7,2731.9 2657.6,2731.9 2657.6,2708.4 2700.4,2708.4 2700.4,2699 
					2646.7,2699 2646.7,2775.1 2702,2775.1 2702,2765.6 2657.6,2765.6 				"/>
				<path d="M2784,2738.5c-2.7-1.5-5.7-2.7-9-3.7c-3.3-0.9-6.6-1.8-9.9-2.5c-3.3-0.8-6.2-1.5-9-2.5c-2.7-0.9-4.9-2.2-6.7-3.8
					c-1.6-1.5-2.5-3.7-2.5-6.4c0-2.3,0.7-4.3,2-6.1c1.2-1.8,3.3-3.2,6-4.3c2.7-1.1,6.2-1.6,10.5-1.6c3.4,0,6.9,0.5,10.5,1.5
					s7,2.5,10.3,4.7l3.6-8.7c-3.2-2.2-7-3.8-11.3-5c-4.4-1.2-8.8-1.8-13.2-1.8c-6.7,0-12.2,1-16.4,3c-4.3,2-7.5,4.6-9.5,7.9
					c-2.1,3.3-3.1,6.9-3.1,10.9c0,4.1,0.8,7.5,2.5,10c1.6,2.6,3.8,4.6,6.6,6.1c2.7,1.5,5.7,2.7,9,3.7c3.3,1,6.6,1.9,9.9,2.5
					c3.3,0.8,6.2,1.5,9,2.5c2.7,1,4.9,2.3,6.7,3.8c1.6,1.5,2.5,3.7,2.5,6.2c0,2.2-0.7,4.3-2,6c-1.3,1.8-3.4,3.2-6.1,4.2
					c-2.7,1-6.4,1.5-10.7,1.5c-4.8,0-9.5-0.8-14-2.5c-4.5-1.6-8.2-3.7-11.1-6.2l-4.1,8.4c3.1,2.9,7.2,5.2,12.5,6.9
					c5.3,1.8,10.9,2.6,16.7,2.6c6.7,0,12.2-1,16.7-3c4.4-2,7.6-4.6,9.8-7.9c2.1-3.3,3.2-6.9,3.2-10.7c0-3.9-0.8-7.2-2.5-9.8
					C2788.8,2742,2786.7,2740,2784,2738.5z"/>
				<polygon points="2841.4,2741.1 2879.7,2741.1 2879.7,2731.9 2841.4,2731.9 2841.4,2708.4 2884.3,2708.4 2884.3,2699 
					2830.6,2699 2830.6,2775.1 2885.8,2775.1 2885.8,2765.6 2841.4,2765.6 				"/>
				<polygon points="2979.8,2755.7 2934.1,2699 2925.2,2699 2925.2,2775.1 2936,2775.1 2936,2718.4 2981.8,2775.1 2990.6,2775.1 
					2990.6,2699 2979.8,2699 				"/>
				<path d="M3048.4,2716c2.7-2.6,5.9-4.7,9.5-6.1c3.7-1.4,7.7-2.2,11.9-2.2c4.2,0,8,0.8,11.6,2.2s6.9,3.7,9.8,6.8l7-6.8
					c-3.5-3.9-7.7-6.9-12.6-8.9c-4.9-2-10.4-3-16.2-3s-11.1,1-16,2.9c-4.9,2-9.2,4.7-12.8,8.2c-3.6,3.5-6.5,7.7-8.4,12.4
					s-3.1,9.9-3.1,15.6c0,5.6,1,10.9,3.1,15.6c2,4.7,4.8,8.9,8.4,12.4c3.5,3.5,7.8,6.2,12.7,8.2c4.8,2,10.2,2.9,16,2.9
					c5.9,0,11.4-1,16.4-3.2c4.9-2,9.2-5,12.6-8.9l-7-6.8c-2.9,3.2-6.1,5.5-9.8,6.9c-3.6,1.5-7.5,2.2-11.6,2.2
					c-4.3,0-8.2-0.8-11.9-2.2c-3.6-1.5-6.8-3.5-9.5-6.1s-4.7-5.7-6.2-9.3c-1.5-3.6-2.2-7.5-2.2-11.7c0-4.3,0.8-8.1,2.2-11.7
					C3043.6,2721.7,3045.7,2718.5,3048.4,2716z"/>
				<polygon points="3145.3,2741.1 3183.5,2741.1 3183.5,2731.9 3145.3,2731.9 3145.3,2708.4 3188.2,2708.4 3188.2,2699 
					3134.5,2699 3134.5,2775.1 3189.7,2775.1 3189.7,2765.6 3145.3,2765.6 				"/>
				<path d="M3322.7,2738.5c-2.7-1.5-5.7-2.7-9-3.7c-3.3-0.9-6.6-1.8-9.9-2.5c-3.3-0.8-6.2-1.5-9-2.5c-2.7-0.9-4.9-2.2-6.7-3.8
					c-1.6-1.5-2.5-3.7-2.5-6.4c0-2.3,0.7-4.3,2-6.1c1.2-1.8,3.3-3.2,6-4.3c2.7-1.1,6.2-1.6,10.5-1.6c3.4,0,6.9,0.5,10.5,1.5
					s7,2.5,10.3,4.7l3.6-8.7c-3.2-2.2-7-3.8-11.3-5c-4.4-1.2-8.8-1.8-13.2-1.8c-6.7,0-12.2,1-16.4,3c-4.3,2-7.5,4.6-9.5,7.9
					c-2.1,3.3-3.1,6.9-3.1,10.9c0,4.1,0.8,7.5,2.5,10c1.6,2.6,3.8,4.6,6.6,6.1c2.7,1.5,5.7,2.7,9,3.7c3.3,1,6.6,1.9,9.9,2.5
					c3.2,0.8,6.2,1.5,9,2.5c2.7,1,4.9,2.3,6.7,3.8c1.6,1.5,2.5,3.7,2.5,6.2c0,2.2-0.7,4.3-2,6c-1.3,1.8-3.4,3.2-6.1,4.2
					c-2.7,1-6.4,1.5-10.7,1.5c-4.8,0-9.5-0.8-14-2.5c-4.5-1.6-8.2-3.7-11.1-6.2l-4.1,8.4c3.1,2.9,7.2,5.2,12.5,6.9
					c5.3,1.8,10.9,2.6,16.7,2.6c6.7,0,12.2-1,16.7-3c4.4-2,7.6-4.6,9.8-7.9c2.1-3.3,3.2-6.9,3.2-10.7c0-3.9-0.8-7.2-2.5-9.8
					C3327.6,2742,3325.5,2740,3322.7,2738.5z"/>
				<polygon points="3380.2,2741.1 3418.4,2741.1 3418.4,2731.9 3380.2,2731.9 3380.2,2708.4 3423,2708.4 3423,2699 3369.3,2699 
					3369.3,2775.1 3424.6,2775.1 3424.6,2765.6 3380.2,2765.6 				"/>
				<path d="M3510.7,2748.8c4.7-2.1,8.3-5.2,10.9-9.1c2.5-3.9,3.8-8.7,3.8-14.1c0-8.3-2.7-14.9-8.4-19.5c-5.7-4.7-13.4-7-23.2-7
					H3464v76.1l0,0h10.9v-23.1h18.9c1.6,0,3.3-0.1,4.9-0.2l16.3,23.2h11.8l-18.1-25.4C3509.3,2749.4,3510.1,2749.1,3510.7,2748.8z
					 M3493.3,2742.6h-18.4v-34.2h18.4c7,0,12.2,1.5,15.8,4.5c3.6,3,5.4,7.1,5.4,12.6c0,5.5-1.8,9.6-5.4,12.6
					C3505.5,2741.2,3500.2,2742.6,3493.3,2742.6z"/>
				<polygon points="3592.4,2761.6 3564.9,2699 3553.2,2699 3586.7,2775.1 3597.4,2775.1 3630.8,2699 3619.9,2699 				"/>
				<rect x="3662.2" y="2699" width="10.9" height="76.1"/>
				<path d="M3730.9,2716c2.7-2.6,5.9-4.7,9.5-6.1c3.7-1.4,7.7-2.2,11.9-2.2c4.2,0,8,0.8,11.6,2.2s6.9,3.7,9.8,6.8l7-6.8
					c-3.5-3.9-7.7-6.9-12.6-8.9c-4.9-2-10.4-3-16.2-3s-11.1,1-16,2.9c-4.9,2-9.2,4.7-12.8,8.2c-3.6,3.5-6.5,7.7-8.4,12.4
					s-3.1,9.9-3.1,15.6c0,5.6,1,10.9,3.1,15.6c2,4.7,4.8,8.9,8.4,12.4c3.5,3.5,7.8,6.2,12.7,8.2c4.8,2,10.2,2.9,16,2.9
					c5.9,0,11.4-1,16.4-3.2c4.9-2,9.2-5,12.6-8.9l-7-6.8c-2.9,3.2-6.1,5.5-9.8,6.9c-3.6,1.5-7.5,2.2-11.6,2.2
					c-4.3,0-8.2-0.8-11.9-2.2c-3.6-1.5-6.8-3.5-9.5-6.1s-4.7-5.7-6.2-9.3c-1.5-3.6-2.2-7.5-2.2-11.7c0-4.3,0.8-8.1,2.2-11.7
					C3726.2,2721.7,3728.1,2718.5,3730.9,2716z"/>
				<polygon points="3827.8,2741.1 3866,2741.1 3866,2731.9 3827.8,2731.9 3827.8,2708.4 3870.6,2708.4 3870.6,2699 3816.9,2699 
					3816.9,2775.1 3872.2,2775.1 3872.2,2765.6 3827.8,2765.6 				"/>
				<path d="M3960.8,2744.5c-1.6-2.5-3.8-4.6-6.6-6.1c-2.7-1.5-5.7-2.7-9-3.7c-3.3-0.9-6.6-1.8-9.9-2.5c-3.2-0.8-6.2-1.5-9-2.5
					c-2.7-0.9-4.9-2.2-6.7-3.8c-1.6-1.5-2.5-3.7-2.5-6.4c0-2.3,0.7-4.3,2-6.1c1.2-1.8,3.3-3.2,6-4.3c2.7-1.1,6.2-1.6,10.5-1.6
					c3.4,0,6.9,0.5,10.5,1.5s7,2.5,10.3,4.7l3.6-8.7c-3.2-2.2-7-3.8-11.3-5c-4.4-1.2-8.8-1.8-13.2-1.8c-6.7,0-12.2,1-16.4,3
					c-4.3,2-7.5,4.6-9.5,7.9c-2.1,3.3-3.1,6.9-3.1,10.9c0,4.1,0.8,7.5,2.5,10c1.6,2.6,3.8,4.6,6.6,6.1c2.7,1.5,5.7,2.7,9,3.7
					c3.3,1,6.6,1.9,9.9,2.5c3.2,0.8,6.2,1.5,9,2.5c2.7,1,4.9,2.3,6.7,3.8c1.6,1.5,2.5,3.7,2.5,6.2c0,2.2-0.7,4.3-2,6
					c-1.3,1.8-3.4,3.2-6.1,4.2c-2.7,1-6.4,1.5-10.7,1.5c-4.8,0-9.5-0.8-14-2.5c-4.5-1.6-8.2-3.7-11.1-6.2l-4.1,8.4
					c3.1,2.9,7.2,5.2,12.5,6.9c5.3,1.8,10.9,2.6,16.7,2.6c6.7,0,12.2-1,16.7-3c4.4-2,7.6-4.6,9.8-7.9c2.1-3.3,3.2-6.9,3.2-10.7
					C3963.3,2750.3,3962.4,2747.1,3960.8,2744.5z"/>
			</g>
		</g>
	</g>
	<path d="M2844.2,887.3"/>
	<g>
		<path d="M3268.1,954c-174-18.1-337.8-60.9-487.4-126.1c2.1-3,3.6-6.3,4.4-10c4-19.1,1.3-37-8.2-54.1c-3.8-6.9-10.4-11.7-18-13.3
			c-19.1-4-37-1.3-54.1,8.2c-6.9,3.8-11.7,10.4-13.3,18c-0.6,2.7-1,5.5-1.3,8.3c-128.7-66.6-245.3-150.7-346.8-250.6
			c-22.4-21.9-31.5-19.5-21.4,6.3c10.2,25.8,31.9,63.3,49.6,82.9c193.7,213.4,458.1,352.7,760.1,398.6c27.4,4.4,83.4-8.7,124.5-28
			C3297.5,974.8,3302.6,957.4,3268.1,954z"/>
		<path d="M2981.4,1024.9c-148.7-25-288.9-79.1-413.9-159.9c-12.9-8.3-20.4-3.9-16.9,10.1c3.5,14,14.8,32,25.4,40
			c105.6,78.1,224.1,133,350,162.4c12.6,3,36.5-6.8,53.2-21.6C2995.8,1041.1,2996.7,1027.4,2981.4,1024.9z"/>
		<path d="M3064.7,305.6c-22.7-25-63.3-19.6-78.6,10.4l-211.3,412.4L3064.7,305.6L3064.7,305.6z"/>
		<path d="M2836.8,1227.7c-5.6-14.5-10.9-28.7-16.4-43c-2.3-6.1-3.4-13.3-7.6-17.6c-4-4.2-11.2-5.6-17-8.2
			c-18.2-7.8-35.9-16.5-51.7-28.7c-15.9-12.3-30.6-25.9-40.2-44c-3.8-7.3-6.6-15-6.3-23.4l0-0.1c0.2-6,6.5-9.8,12-7.3l195.7,86.5
			c8.6,3.8,9.8,15.7,1.9,21.1c-0.1,0.1-0.1,0.1-0.2,0.1c-3.8,2.5-8,4.5-12.1,6.2c-9.6,4-13.1,10.5-9.7,20.4
			c1.8,5.5,4.7,10.6,7.3,16.3c9.4-3.7,18.4-7.1,27.6-10.7c2.1,5.9,4,11.5,6.1,17.4c-8.8,3.5-17.3,6.9-26.2,10.4
			c3.4,6.9,6.6,13.5,10,20.5c-19.8,7.8-39.4,15.4-59.3,23.1c-2.8-7.3-5.5-14.3-8.4-21.6c-6.1,2.3-12,4.6-17.9,6.8
			c-44,16.9-87.8,34.2-131.9,50.8c-38.2,14.4-76.8,14-115.2,0.6c-6.1-2.1-12.2-4.7-17.7-7.8c-9.8-5.4-20.2-6.1-30.7-4.1
			c-12.3,2.2-23.9,0-35.1-4.9c-15.3-6.7-30.7-13.6-46.1-20.3c-7.8-3.5-9.4-7.4-6-15.2c4.3-9.8,8.5-19.5,13-29.2
			c2.6-5.7,7.4-8.2,12.9-5.9c18.6,8.1,37.1,16.2,55.4,24.8c10.3,4.8,17,13.7,23.2,23c4.1,6.3,9.7,11,16.8,14.2
			c15.9,7.2,31.7,14.2,49.3,16.3c26.3,3.2,51.9,1.4,76.8-8.5c47.7-19,95.7-37.5,143.6-56.2C2834,1229,2835.1,1228.4,2836.8,1227.7z"
			/>
	</g>
</g>
</svg>
