<?xml version="1.0" encoding="utf-8"?>
<!-- Generator: Adobe Illustrator 25.4.1, SVG Export Plug-In . SVG Version: 6.00 Build 0)  -->
<svg version="1.1" id="圖層_1" xmlns="http://www.w3.org/2000/svg" xmlns:xlink="http://www.w3.org/1999/xlink" x="0px" y="0px"
	 viewBox="0 0 5442.5 3061.4" style="enable-background:new 0 0 5442.5 3061.4;" xml:space="preserve">
<style type="text/css">
	.st0{fill:#FFFFFF;}
</style>
<g>
	<g>
		<path class="st0" d="M2042.7,1658.7c118.7,0,215.7,36.1,291.1,108.3c75.4,72.1,113.1,162.2,113.1,270.2
			c0,138.9-43.7,255.9-130.9,350.8c-87.3,94.9-203,142.4-347.4,142.4c-117.1,0-213-38.3-287.6-114.9c-74.7-76.5-112-168.4-112-275.6
			c0-72.3,18-146.6,54-222.8c36-76.2,90.1-138.2,162.5-186.3C1857.8,1682.7,1943.6,1658.7,2042.7,1658.7z M2039.2,2485.4
			c58.2,0,115.6-15.6,172.2-46.8c56.7-31.2,101.3-74.2,133.8-128.9c32.5-54.7,48.8-111,48.8-168.8c0-81.9-21.9-156.4-65.7-223.4
			c-43.9-67-100.7-119.5-170.5-157.3c-69.9-37.9-134.5-56.9-193.8-56.9c-83.9,0-159.9,31.6-228.2,94.7
			c-68.3,63.1-102.5,141.6-102.5,235.4c0,119.8,41.7,225,125.2,315.8C1841.9,2440.1,1935.5,2485.4,2039.2,2485.4z"/>
		<path class="st0" d="M2533.5,1679.4v-8.6h241.2c85.7,0,148.1,9.6,186.9,28.7s67.2,43,85,71.6c17.8,28.5,26.7,66.2,26.7,113
			c0,71.7-24.7,125.5-74.1,161.6c-49.4,36-116.4,53.3-201,51.7v-8.6c53.6,0,97.1-16.5,130.7-49.4c33.5-32.9,50.3-76.2,50.3-129.8
			c0-41.7-8.1-78.7-24.4-111.1c-16.3-32.3-39.1-56.9-68.6-73.8c-29.5-16.9-74.5-25.3-134.9-25.3h-60.3V2423
			c0,40.9,4.6,65.3,13.8,73.1c9.2,7.9,26.6,11.7,52.3,11.7v8.6h-223.4v-8.6c39.8,0,59.7-18.2,59.7-54.5v-699.9
			c0-29.8-3.8-49.6-11.5-59.4C2574.1,1684.3,2558,1679.4,2533.5,1679.4z"/>
		<path class="st0" d="M3561.8,1681.7l40.2,105.7l-6.9,1.1c0-0.4-10.6-11.7-31.9-33.9c-21.3-22.2-45.5-39.3-72.9-51.4
			s-58.3-18.1-92.7-18.1c-57.8,0-103.7,16.5-137.5,49.7c-33.9,33.1-50.8,73-50.8,119.7c0,31,7.9,58.1,23.8,81.3
			c15.9,23.2,49.1,44.7,99.5,64.8c86.8,29.3,146.3,51.3,178.2,66c32,14.7,62.8,39.7,92.5,74.9c29.7,35.2,44.5,80.3,44.5,135.4
			c0,22.9-2.7,44.9-8.1,65.7c-5.3,20.9-14,40.9-25.9,60.2c-11.9,19.3-26.1,36.9-42.8,52.8c-16.7,15.9-33.6,27.9-50.8,36.1
			c-17.2,8.2-44.4,14.4-81.5,18.7c-37.1,4.2-61.7,6.3-73.5,6.3h-225.6v-245.8h8.6c0.7,81.5,19.9,138.4,57.4,170.5
			c37.5,32.1,95.9,48.3,175.1,48.3c71.9,0,126.6-17,163.9-51.1c37.3-34.1,56-75,56-122.9c0-29.1-6.5-53.9-19.5-74.3
			c-13-20.5-31.2-38.5-54.5-54c-23.3-15.5-67.5-34.4-132.6-56.7c-64.7-22.7-110.1-42.6-136.3-59.6c-26.3-17-48.2-42.7-65.8-76.9
			c-17.6-34.2-26.5-69.1-26.5-104.7c0-65.4,22.5-120.3,67.5-164.6c45-44.3,104-66.5,177.1-66.5c28.3,0,58.9,3.3,91.9,9.7
			c32.9,6.5,51.3,10.7,55.1,12.6C3558.8,1681.4,3560.3,1681.7,3561.8,1681.7z"/>
	</g>
	<g>
		<path class="st0" d="M1629.9,2678.6c-3.3-3.2-7.2-5.7-11.7-7.5c-4.4-1.8-9.3-2.6-14.6-2.6c-5.4,0-10.3,0.9-14.8,2.7
			c-4.5,1.8-8.4,4.3-11.7,7.5c-3.3,3.2-5.9,7-7.7,11.3c-1.8,4.3-2.8,9-2.8,14.1c0,5.1,0.9,9.8,2.8,14.1c1.8,4.3,4.4,8.1,7.7,11.3
			c3.3,3.2,7.2,5.7,11.8,7.5c4.6,1.8,9.4,2.7,14.7,2.7c5.3,0,10.2-0.9,14.6-2.6c4.5-1.8,8.4-4.3,11.7-7.5c3.3-3.2,5.9-7,7.7-11.3
			c1.8-4.3,2.7-9,2.7-14.2c0-5.1-0.9-9.9-2.7-14.2C1635.8,2685.6,1633.2,2681.8,1629.9,2678.6z M1628.4,2714.7
			c-1.4,3.2-3.2,6.1-5.7,8.5s-5.2,4.3-8.5,5.6s-6.8,2-10.7,2c-3.9,0-7.5-0.7-10.8-2c-3.3-1.3-6.1-3.2-8.6-5.6
			c-2.5-2.4-4.3-5.2-5.7-8.5c-1.4-3.2-2-6.8-2-10.6s0.7-7.4,2-10.6c1.4-3.2,3.2-6.1,5.7-8.5c2.5-2.4,5.3-4.3,8.6-5.6
			c3.2-1.3,6.8-2,10.8-2c3.8,0,7.4,0.7,10.7,2c3.2,1.3,6.1,3.2,8.5,5.6c2.4,2.4,4.3,5.2,5.7,8.5c1.4,3.2,2,6.8,2,10.6
			C1630.4,2708,1629.7,2711.5,1628.4,2714.7z"/>
		<path class="st0" d="M1718,2672.3c-4.3-1.9-9.5-2.9-15.6-2.9h-27.1v69.4v0h9.9v-21h17.2c6.1,0,11.3-1,15.6-2.9
			c4.3-2,7.6-4.7,9.9-8.3c2.3-3.6,3.5-7.9,3.5-12.9c0-5-1.1-9.3-3.5-13C1725.6,2677,1722.3,2674.2,1718,2672.3z M1716.6,2705.1
			c-3.3,2.7-8.1,4.1-14.4,4.1h-16.8V2678h16.8c6.4,0,11.1,1.4,14.4,4.1c3.3,2.7,4.9,6.5,4.9,11.5
			C1721.5,2698.5,1719.8,2702.3,1716.6,2705.1z"/>
		<polygon class="st0" points="1775.7,2707.8 1810.5,2707.8 1810.5,2699.4 1775.7,2699.4 1775.7,2678 1814.8,2678 1814.8,2669.4 
			1765.8,2669.4 1765.8,2738.8 1816.1,2738.8 1816.1,2730.2 1775.7,2730.2 		"/>
		<path class="st0" d="M1894.7,2714.8c4.3-1.9,7.6-4.7,9.9-8.3c2.3-3.6,3.5-7.9,3.5-12.9c0-7.6-2.5-13.6-7.7-17.8
			c-5.2-4.3-12.2-6.4-21.2-6.4h-27.1v69.4v0h9.9v-21.1h17.2c1.5,0,3-0.1,4.5-0.2l14.9,21.2h10.8l-16.5-23.2
			C1893.5,2715.4,1894.1,2715.1,1894.7,2714.8z M1878.8,2709.2H1862V2678h16.8c6.4,0,11.1,1.4,14.4,4.1c3.3,2.7,4.9,6.5,4.9,11.5
			c0,5-1.6,8.8-4.9,11.5C1890,2707.9,1885.2,2709.2,1878.8,2709.2z"/>
		<path class="st0" d="M1965,2669.4l-31.5,69.4h10.2l7.6-17.3h37l7.6,17.3h10.4l-31.5-69.4H1965z M1954.8,2713.5l15-34.1l15,34.1
			H1954.8z"/>
		<polygon class="st0" points="2023,2678 2046.8,2678 2046.8,2738.8 2056.6,2738.8 2056.6,2678 2080.4,2678 2080.4,2669.4 
			2023,2669.4 		"/>
		<rect x="2111" y="2669.4" class="st0" width="9.9" height="69.4"/>
		<path class="st0" d="M2219.3,2678.6c-3.3-3.2-7.2-5.7-11.7-7.5c-4.4-1.8-9.3-2.6-14.6-2.6c-5.4,0-10.3,0.9-14.8,2.7
			c-4.5,1.8-8.4,4.3-11.7,7.5c-3.3,3.2-5.9,7-7.7,11.3c-1.8,4.3-2.8,9-2.8,14.1c0,5.1,0.9,9.8,2.8,14.1c1.8,4.3,4.4,8.1,7.7,11.3
			c3.3,3.2,7.2,5.7,11.8,7.5c4.6,1.8,9.4,2.7,14.7,2.7c5.3,0,10.1-0.9,14.6-2.6s8.4-4.3,11.7-7.5c3.3-3.2,5.9-7,7.7-11.3
			c1.8-4.3,2.7-9,2.7-14.2c0-5.1-0.9-9.9-2.7-14.2C2225.2,2685.6,2222.6,2681.8,2219.3,2678.6z M2217.8,2714.7
			c-1.4,3.2-3.2,6.1-5.7,8.5c-2.4,2.4-5.2,4.3-8.5,5.6s-6.8,2-10.7,2c-3.9,0-7.5-0.7-10.8-2c-3.3-1.3-6.1-3.2-8.6-5.6
			c-2.5-2.4-4.3-5.2-5.7-8.5c-1.4-3.2-2-6.8-2-10.6s0.7-7.4,2-10.6c1.4-3.2,3.2-6.1,5.7-8.5c2.5-2.4,5.3-4.3,8.6-5.6
			c3.2-1.3,6.8-2,10.8-2c3.8,0,7.4,0.7,10.7,2c3.2,1.3,6.1,3.2,8.5,5.6c2.4,2.4,4.3,5.2,5.7,8.5c1.4,3.2,2,6.8,2,10.6
			C2219.8,2708,2219.1,2711.5,2217.8,2714.7z"/>
		<polygon class="st0" points="2314.5,2721.1 2272.8,2669.4 2264.7,2669.4 2264.7,2738.8 2274.6,2738.8 2274.6,2687.1 
			2316.3,2738.8 2324.4,2738.8 2324.4,2669.4 2314.5,2669.4 		"/>
		<path class="st0" d="M2404,2705.4c-2.5-1.4-5.2-2.5-8.2-3.4c-3-0.8-6-1.6-9-2.3c-3-0.7-5.7-1.4-8.2-2.3c-2.5-0.8-4.5-2-6.1-3.5
			c-1.5-1.4-2.3-3.4-2.3-5.8c0-2.1,0.6-3.9,1.8-5.6c1.1-1.6,3-2.9,5.5-3.9c2.5-1,5.7-1.5,9.6-1.5c3.1,0,6.3,0.5,9.6,1.4
			c3.3,0.9,6.4,2.3,9.4,4.3l3.3-7.9c-2.9-2-6.4-3.5-10.3-4.6c-4-1.1-8-1.6-12-1.6c-6.1,0-11.1,0.9-15,2.7c-3.9,1.8-6.8,4.2-8.7,7.2
			s-2.8,6.3-2.8,9.9c0,3.7,0.7,6.8,2.3,9.1c1.5,2.4,3.5,4.2,6,5.6c2.5,1.4,5.2,2.5,8.2,3.4s6,1.7,9,2.3c2.9,0.7,5.7,1.4,8.2,2.3
			c2.5,0.9,4.5,2.1,6.1,3.5c1.5,1.4,2.3,3.4,2.3,5.7c0,2-0.6,3.9-1.8,5.5c-1.2,1.6-3.1,2.9-5.6,3.8c-2.5,0.9-5.8,1.4-9.8,1.4
			c-4.4,0-8.7-0.7-12.8-2.3c-4.1-1.5-7.5-3.4-10.1-5.7l-3.7,7.7c2.8,2.6,6.6,4.7,11.4,6.3c4.8,1.6,9.9,2.4,15.2,2.4
			c6.1,0,11.1-0.9,15.2-2.7c4-1.8,6.9-4.2,8.9-7.2c1.9-3,2.9-6.3,2.9-9.8c0-3.6-0.7-6.6-2.3-8.9
			C2408.5,2708.6,2406.5,2706.8,2404,2705.4z"/>
		<path class="st0" d="M2535.7,2672.3c-4.3-1.9-9.5-2.9-15.6-2.9H2493v69.4v0h9.9v-21h17.2c6.1,0,11.3-1,15.6-2.9
			c4.3-2,7.6-4.7,9.9-8.3c2.3-3.6,3.5-7.9,3.5-12.9c0-5-1.1-9.3-3.5-13C2543.3,2677,2540,2674.2,2535.7,2672.3z M2534.2,2705.1
			c-3.3,2.7-8.1,4.1-14.4,4.1h-16.8V2678h16.8c6.4,0,11.1,1.4,14.4,4.1c3.3,2.7,4.9,6.5,4.9,11.5
			C2539.1,2698.5,2537.5,2702.3,2534.2,2705.1z"/>
		<path class="st0" d="M2626.1,2714.8c4.3-1.9,7.6-4.7,9.9-8.3c2.3-3.6,3.5-7.9,3.5-12.9c0-7.6-2.5-13.6-7.7-17.8
			c-5.2-4.3-12.2-6.4-21.2-6.4h-27.1v69.4v0h9.9v-21.1h17.2c1.5,0,3-0.1,4.5-0.2l14.9,21.2h10.8l-16.5-23.2
			C2624.9,2715.4,2625.5,2715.1,2626.1,2714.8z M2610.3,2709.2h-16.8V2678h16.8c6.4,0,11.1,1.4,14.4,4.1c3.3,2.7,4.9,6.5,4.9,11.5
			c0,5-1.6,8.8-4.9,11.5C2621.4,2707.9,2616.6,2709.2,2610.3,2709.2z"/>
		<polygon class="st0" points="2685.3,2707.8 2720.1,2707.8 2720.1,2699.4 2685.3,2699.4 2685.3,2678 2724.4,2678 2724.4,2669.4 
			2675.4,2669.4 2675.4,2738.8 2725.8,2738.8 2725.8,2730.2 2685.3,2730.2 		"/>
		<path class="st0" d="M2800.6,2705.4c-2.5-1.4-5.2-2.5-8.2-3.4c-3-0.8-6-1.6-9-2.3c-3-0.7-5.7-1.4-8.2-2.3c-2.5-0.8-4.5-2-6.1-3.5
			c-1.5-1.4-2.3-3.4-2.3-5.8c0-2.1,0.6-3.9,1.8-5.6c1.1-1.6,3-2.9,5.5-3.9c2.5-1,5.7-1.5,9.6-1.5c3.1,0,6.3,0.5,9.6,1.4
			c3.3,0.9,6.4,2.3,9.4,4.3l3.3-7.9c-2.9-2-6.4-3.5-10.3-4.6c-4-1.1-8-1.6-12-1.6c-6.1,0-11.1,0.9-15,2.7c-3.9,1.8-6.8,4.2-8.7,7.2
			s-2.8,6.3-2.8,9.9c0,3.7,0.7,6.8,2.3,9.1c1.5,2.4,3.5,4.2,6,5.6c2.5,1.4,5.2,2.5,8.2,3.4c3,0.9,6,1.7,9,2.3c3,0.7,5.7,1.4,8.2,2.3
			c2.5,0.9,4.5,2.1,6.1,3.5c1.5,1.4,2.3,3.4,2.3,5.7c0,2-0.6,3.9-1.8,5.5c-1.2,1.6-3.1,2.9-5.6,3.8c-2.5,0.9-5.8,1.4-9.8,1.4
			c-4.4,0-8.7-0.7-12.8-2.3c-4.1-1.5-7.5-3.4-10.1-5.7l-3.7,7.7c2.8,2.6,6.6,4.7,11.4,6.3c4.8,1.6,9.9,2.4,15.2,2.4
			c6.1,0,11.1-0.9,15.2-2.7c4-1.8,6.9-4.2,8.9-7.2c1.9-3,2.9-6.3,2.9-9.8c0-3.6-0.7-6.6-2.3-8.9
			C2805,2708.6,2803.1,2706.8,2800.6,2705.4z"/>
		<polygon class="st0" points="2853,2707.8 2887.9,2707.8 2887.9,2699.4 2853,2699.4 2853,2678 2892.1,2678 2892.1,2669.4 
			2843.1,2669.4 2843.1,2738.8 2893.5,2738.8 2893.5,2730.2 2853,2730.2 		"/>
		<polygon class="st0" points="2979.2,2721.1 2937.5,2669.4 2929.4,2669.4 2929.4,2738.8 2939.3,2738.8 2939.3,2687.1 2981,2738.8 
			2989.1,2738.8 2989.1,2669.4 2979.2,2669.4 		"/>
		<path class="st0" d="M3041.8,2684.9c2.5-2.4,5.4-4.3,8.7-5.6c3.4-1.3,7-2,10.9-2c3.8,0,7.3,0.7,10.6,2s6.3,3.4,8.9,6.2l6.4-6.2
			c-3.2-3.6-7-6.3-11.5-8.1c-4.5-1.8-9.5-2.7-14.8-2.7c-5.3,0-10.1,0.9-14.6,2.6c-4.5,1.8-8.4,4.3-11.7,7.5c-3.3,3.2-5.9,7-7.7,11.3
			c-1.8,4.3-2.8,9-2.8,14.2c0,5.1,0.9,9.9,2.8,14.2c1.8,4.3,4.4,8.1,7.7,11.3c3.2,3.2,7.1,5.7,11.6,7.5c4.4,1.8,9.3,2.6,14.6,2.6
			c5.4,0,10.4-0.9,15-2.9c4.5-1.8,8.4-4.6,11.5-8.1l-6.4-6.2c-2.6,2.9-5.6,5-8.9,6.3c-3.3,1.4-6.8,2-10.6,2c-3.9,0-7.5-0.7-10.9-2
			c-3.3-1.4-6.2-3.2-8.7-5.6s-4.3-5.2-5.7-8.5s-2-6.8-2-10.7s0.7-7.4,2-10.7C3037.4,2690.1,3039.3,2687.2,3041.8,2684.9z"/>
		<polygon class="st0" points="3130.2,2707.8 3165,2707.8 3165,2699.4 3130.2,2699.4 3130.2,2678 3169.3,2678 3169.3,2669.4 
			3120.3,2669.4 3120.3,2738.8 3170.7,2738.8 3170.7,2730.2 3130.2,2730.2 		"/>
		<path class="st0" d="M3292,2705.4c-2.5-1.4-5.2-2.5-8.2-3.4c-3-0.8-6-1.6-9-2.3c-3-0.7-5.7-1.4-8.2-2.3c-2.5-0.8-4.5-2-6.1-3.5
			c-1.5-1.4-2.3-3.4-2.3-5.8c0-2.1,0.6-3.9,1.8-5.6c1.1-1.6,3-2.9,5.5-3.9c2.5-1,5.7-1.5,9.6-1.5c3.1,0,6.3,0.5,9.6,1.4
			c3.3,0.9,6.4,2.3,9.4,4.3l3.3-7.9c-2.9-2-6.4-3.5-10.3-4.6c-4-1.1-8-1.6-12-1.6c-6.1,0-11.1,0.9-15,2.7c-3.9,1.8-6.8,4.2-8.7,7.2
			s-2.8,6.3-2.8,9.9c0,3.7,0.7,6.8,2.3,9.1c1.5,2.4,3.5,4.2,6,5.6c2.5,1.4,5.2,2.5,8.2,3.4s6,1.7,9,2.3c2.9,0.7,5.7,1.4,8.2,2.3
			c2.5,0.9,4.5,2.1,6.1,3.5c1.5,1.4,2.3,3.4,2.3,5.7c0,2-0.6,3.9-1.8,5.5c-1.2,1.6-3.1,2.9-5.6,3.8c-2.5,0.9-5.8,1.4-9.8,1.4
			c-4.4,0-8.7-0.7-12.8-2.3c-4.1-1.5-7.5-3.4-10.1-5.7l-3.7,7.7c2.8,2.6,6.6,4.7,11.4,6.3c4.8,1.6,9.9,2.4,15.2,2.4
			c6.1,0,11.1-0.9,15.2-2.7c4-1.8,6.9-4.2,8.9-7.2c1.9-3,2.9-6.3,2.9-9.8c0-3.6-0.7-6.6-2.3-8.9
			C3296.5,2708.6,3294.5,2706.8,3292,2705.4z"/>
		<polygon class="st0" points="3344.4,2707.8 3379.3,2707.8 3379.3,2699.4 3344.4,2699.4 3344.4,2678 3383.5,2678 3383.5,2669.4 
			3334.5,2669.4 3334.5,2738.8 3384.9,2738.8 3384.9,2730.2 3344.4,2730.2 		"/>
		<path class="st0" d="M3463.5,2714.8c4.3-1.9,7.6-4.7,9.9-8.3c2.3-3.6,3.5-7.9,3.5-12.9c0-7.6-2.5-13.6-7.7-17.8
			c-5.2-4.3-12.2-6.4-21.2-6.4h-27.1v69.4v0h9.9v-21.1h17.2c1.5,0,3-0.1,4.5-0.2l14.9,21.2h10.8l-16.5-23.2
			C3462.2,2715.4,3462.9,2715.1,3463.5,2714.8z M3447.6,2709.2h-16.8V2678h16.8c6.4,0,11.1,1.4,14.4,4.1c3.3,2.7,4.9,6.5,4.9,11.5
			c0,5-1.6,8.8-4.9,11.5C3458.7,2707.9,3453.9,2709.2,3447.6,2709.2z"/>
		<polygon class="st0" points="3538,2726.5 3512.9,2669.4 3502.2,2669.4 3532.8,2738.8 3542.6,2738.8 3573,2669.4 3563.1,2669.4 		
			"/>
		<rect x="3601.7" y="2669.4" class="st0" width="9.9" height="69.4"/>
		<path class="st0" d="M3664.3,2684.9c2.5-2.4,5.4-4.3,8.7-5.6c3.4-1.3,7-2,10.9-2c3.8,0,7.3,0.7,10.6,2s6.3,3.4,8.9,6.2l6.4-6.2
			c-3.2-3.6-7-6.3-11.5-8.1c-4.5-1.8-9.5-2.7-14.8-2.7c-5.3,0-10.1,0.9-14.6,2.6c-4.5,1.8-8.4,4.3-11.7,7.5c-3.3,3.2-5.9,7-7.7,11.3
			c-1.8,4.3-2.8,9-2.8,14.2c0,5.1,0.9,9.9,2.8,14.2c1.8,4.3,4.4,8.1,7.7,11.3c3.2,3.2,7.1,5.7,11.6,7.5c4.4,1.8,9.3,2.6,14.6,2.6
			c5.4,0,10.4-0.9,15-2.9c4.5-1.8,8.4-4.6,11.5-8.1l-6.4-6.2c-2.6,2.9-5.6,5-8.9,6.3c-3.3,1.4-6.8,2-10.6,2c-3.9,0-7.5-0.7-10.9-2
			c-3.3-1.4-6.2-3.2-8.7-5.6s-4.3-5.2-5.7-8.5c-1.4-3.3-2-6.8-2-10.7s0.7-7.4,2-10.7C3660,2690.1,3661.8,2687.2,3664.3,2684.9z"/>
		<polygon class="st0" points="3752.7,2707.8 3787.6,2707.8 3787.6,2699.4 3752.7,2699.4 3752.7,2678 3791.8,2678 3791.8,2669.4 
			3742.8,2669.4 3742.8,2738.8 3793.2,2738.8 3793.2,2730.2 3752.7,2730.2 		"/>
		<path class="st0" d="M3874,2710.9c-1.5-2.3-3.5-4.2-6-5.6c-2.5-1.4-5.2-2.5-8.2-3.4c-3-0.8-6-1.6-9-2.3c-2.9-0.7-5.7-1.4-8.2-2.3
			c-2.5-0.8-4.5-2-6.1-3.5c-1.5-1.4-2.3-3.4-2.3-5.8c0-2.1,0.6-3.9,1.8-5.6c1.1-1.6,3-2.9,5.5-3.9c2.5-1,5.7-1.5,9.6-1.5
			c3.1,0,6.3,0.5,9.6,1.4c3.3,0.9,6.4,2.3,9.4,4.3l3.3-7.9c-2.9-2-6.4-3.5-10.3-4.6c-4-1.1-8-1.6-12-1.6c-6.1,0-11.1,0.9-15,2.7
			c-3.9,1.8-6.8,4.2-8.7,7.2c-1.9,3-2.8,6.3-2.8,9.9c0,3.7,0.7,6.8,2.3,9.1c1.5,2.4,3.5,4.2,6,5.6s5.2,2.5,8.2,3.4
			c3,0.9,6,1.7,9,2.3c2.9,0.7,5.7,1.4,8.2,2.3c2.5,0.9,4.5,2.1,6.1,3.5c1.5,1.4,2.3,3.4,2.3,5.7c0,2-0.6,3.9-1.8,5.5
			c-1.2,1.6-3.1,2.9-5.6,3.8c-2.5,0.9-5.8,1.4-9.8,1.4c-4.4,0-8.7-0.7-12.8-2.3c-4.1-1.5-7.5-3.4-10.1-5.7l-3.7,7.7
			c2.8,2.6,6.6,4.7,11.4,6.3c4.8,1.6,9.9,2.4,15.2,2.4c6.1,0,11.1-0.9,15.2-2.7c4-1.8,6.9-4.2,8.9-7.2c1.9-3,2.9-6.3,2.9-9.8
			C3876.3,2716.2,3875.5,2713.3,3874,2710.9z"/>
	</g>
</g>
<g>
	<path class="st0" d="M3171.9,1072.8c-177.2,7.8-347.9-10.9-507.6-54c1.7-3.3,2.7-6.9,2.9-10.7c1.2-19.7-4.2-37.3-16.2-53
		c-4.8-6.3-12.2-10.2-20.1-10.7c-19.7-1.2-37.3,4.2-53,16.2c-6.3,4.8-10.2,12.2-10.7,20.1c-0.2,2.8-0.2,5.7-0.1,8.4
		c-139-47.7-268.4-114.7-385-199.9c-25.7-18.6-34.5-14.9-20.5,9.5c14,24.4,41.4,58.7,62,75.8c226,185.2,511.9,285.7,821.7,286.9
		c28.1,0.3,82.3-21.1,120.8-46.6C3204.5,1089.3,3207,1071.2,3171.9,1072.8z"/>
	<path class="st0" d="M2793.6,1206.9c-150.1-28.9-290.9-87.1-415.7-172.1c-12.9-8.7-20.6-4.5-17.4,9.8c3.2,14.3,14.2,32.8,24.8,41.2
		c105.1,81.7,223.9,140.2,350.8,173.1c12.7,3.4,37.1-6,54.4-20.6C2807.8,1223.6,2809.1,1209.8,2793.6,1206.9z"/>
	<path class="st0" d="M2539.3,1271.1c-28.6-15.5-56.4-32.8-83.4-51.9c-5.5-3.8-11.4-0.6-13.2,7.3c-1.9,7.9,0.3,17.4,4.8,21.2
		c23.3,19,47.3,36.4,72,52.1c4.8,3.1,13.6-0.8,19.5-8.8S2545.1,1274.2,2539.3,1271.1z"/>
	<path class="st0" d="M2993.4,202.9c-40.5-33.3-101.8-15.8-118.6,33.9l-231.2,683L2993.4,202.9L2993.4,202.9z"/>
</g>
</svg>
