<?xml version="1.0" encoding="utf-8"?>
<!-- Generator: Adobe Illustrator 25.4.1, SVG Export Plug-In . SVG Version: 6.00 Build 0)  -->
<svg version="1.1" id="圖層_1" xmlns="http://www.w3.org/2000/svg" xmlns:xlink="http://www.w3.org/1999/xlink" x="0px" y="0px"
	 viewBox="0 0 5442.5 3061.4" style="enable-background:new 0 0 5442.5 3061.4;" xml:space="preserve">
<g>
	<path d="M3974.9,2400.6c-467.8,20.5-918.4-28.7-1340.1-142.6c4.4-8.7,7.1-18.3,7.7-28.3c3.1-52-11.2-98.6-42.7-140
		c-12.7-16.6-32.1-27-53-28.2c-52-3.1-98.6,11.2-140,42.7c-16.6,12.7-27,32.1-28.2,53c-0.4,7.5-0.5,15-0.2,22.3
		c-367-125.9-708.7-302.9-1016.5-527.7c-67.9-49.1-91.2-39.3-54.2,25.1c37,64.4,109.4,155.1,163.7,200
		c596.7,489,1351.4,754.3,2169.4,757.5c74.3,0.8,217.3-55.7,318.8-123C4060.8,2444.2,4067.4,2396.2,3974.9,2400.6z"/>
	<path d="M2976,2754.5c-396.4-76.3-768-230-1097.6-454.3c-34.1-23-54.4-11.9-45.9,25.9c8.5,37.7,37.6,86.7,65.4,108.7
		c277.5,215.8,591.2,370.1,926.2,457c33.6,9,98-15.8,143.7-54.4C3013.5,2798.7,3017,2762.1,2976,2754.5z"/>
	<path d="M2304.6,2924c-75.4-40.9-148.9-86.6-220.1-137.1c-14.4-10.1-30-1.6-34.9,19.3c-5,20.8,0.7,46,12.8,56
		c61.5,50.1,124.9,96,190.1,137.6c12.8,8.3,35.9-2.2,51.5-23.2C2319.6,2955.6,2319.8,2932.2,2304.6,2924z"/>
	<path d="M3503.6,103.8c-107-87.8-268.8-41.6-313.2,89.6L2580,1996.5L3503.6,103.8L3503.6,103.8z"/>
</g>
</svg>
