<?xml version="1.0" encoding="utf-8"?>
<!-- Generator: Adobe Illustrator 25.4.1, SVG Export Plug-In . SVG Version: 6.00 Build 0)  -->
<svg version="1.1" id="圖層_1" xmlns="http://www.w3.org/2000/svg" xmlns:xlink="http://www.w3.org/1999/xlink" x="0px" y="0px"
	 viewBox="0 0 5442.52 3061.42" style="enable-background:new 0 0 5442.52 3061.42;" xml:space="preserve">
<g>
	<g>
		<path d="M696.33,562.37h-53.57l-15.62-54.48h53.57L696.33,562.37z M716.38,632.28h-53.57l-15.62-54.48h53.57L716.38,632.28z
			 M736.42,702.2h-53.57l-15.62-54.48h53.57L736.42,702.2z M756.47,772.11H702.9l-15.62-54.48h53.57L756.47,772.11z M776.52,842.02
			h-53.57l-15.62-54.48h53.57L776.52,842.02z M796.56,911.93h-53.57l-15.62-54.48h53.57L796.56,911.93z M816.61,981.84h-53.57
			l-15.62-54.47h53.57L816.61,981.84z M836.39,1050.84h-53.57l-15.36-53.57h53.57L836.39,1050.84z M856.44,1120.75h-53.57
			l-15.36-53.57h53.57L856.44,1120.75z M926.35,1120.75h-54.48l-15.36-53.57h54.48L926.35,1120.75z M996.26,1120.75h-54.48
			l-15.36-53.57h54.48L996.26,1120.75z M1066.17,1120.75h-54.48l-15.36-53.57h54.48L1066.17,1120.75z M1136.09,1120.75h-54.48
			l-15.36-53.57h54.48L1136.09,1120.75z M1206,1120.75h-54.48l-15.36-53.57h54.48L1206,1120.75z"/>
		<path d="M1184.79,562.37h-53.57l-15.62-54.48h53.57L1184.79,562.37z M1224.89,702.2h-53.57l-15.62-54.48h53.57L1224.89,702.2z
			 M1244.93,772.11h-53.57l-15.62-54.48h53.57L1244.93,772.11z M1264.98,842.02h-53.57l-15.62-54.48h53.57L1264.98,842.02z
			 M1285.03,911.93h-53.57l-15.62-54.48h53.57L1285.03,911.93z M1305.07,981.84h-53.57l-15.62-54.47h53.57L1305.07,981.84z
			 M1324.86,1050.84h-53.57l-15.36-53.57h53.57L1324.86,1050.84z M1344.91,1120.75h-53.57l-15.36-53.57h53.57L1344.91,1120.75z"/>
		<path d="M1363.8,702.2h-53.57l-15.62-54.48h53.57L1363.8,702.2z M1453.76,772.11h-54.48l-15.62-54.48h54.48L1453.76,772.11z
			 M1473.8,842.02h-54.48l-15.62-54.48h54.48L1473.8,842.02z M1563.76,911.93h-54.48l-15.62-54.48h54.48L1563.76,911.93z
			 M1583.81,981.84h-54.48l-15.62-54.47h54.48L1583.81,981.84z M1673.5,1050.84h-54.47l-15.36-53.57h54.47L1673.5,1050.84z
			 M1693.55,1120.75h-54.47l-15.36-53.57h54.47L1693.55,1120.75z M1703.58,911.93h-54.48l-15.62-54.48h54.48L1703.58,911.93z
			 M1723.63,981.84h-54.48l-15.62-54.47h54.48L1723.63,981.84z M1733.4,772.11h-54.48l-15.62-54.48h54.48L1733.4,772.11z
			 M1753.45,842.02h-54.48l-15.62-54.48h54.48L1753.45,842.02z M1783.27,702.2h-54.48l-15.62-54.48h54.48L1783.27,702.2z"/>
		<path d="M1942.22,772.11h-53.57l-15.62-54.48h53.57L1942.22,772.11z M1962.26,842.02h-53.57l-15.62-54.48h53.57L1962.26,842.02z
			 M1982.31,911.93h-53.57l-15.62-54.48h53.57L1982.31,911.93z M2002.36,981.84h-53.57l-15.62-54.47h53.57L2002.36,981.84z
			 M2022.14,1050.84h-53.57l-15.36-53.57h53.57L2022.14,1050.84z M1992.08,702.2h-54.47l-15.62-54.48h54.47L1992.08,702.2z
			 M2052.22,911.93h-54.47l-15.62-54.48h54.47L2052.22,911.93z M2112.1,1120.75h-54.47l-15.36-53.57h54.47L2112.1,1120.75z
			 M2061.99,702.2h-54.48l-15.62-54.48h54.48L2061.99,702.2z M2122.13,911.93h-54.48l-15.62-54.48h54.48L2122.13,911.93z
			 M2182.01,1120.75h-54.48l-15.36-53.57h54.48L2182.01,1120.75z M2131.9,702.2h-54.48l-15.62-54.48h54.48L2131.9,702.2z
			 M2192.04,911.93h-54.48l-15.62-54.48h54.48L2192.04,911.93z M2251.92,1120.75h-54.48l-15.36-53.57h54.48L2251.92,1120.75z
			 M2201.81,702.2h-54.47l-15.62-54.48h54.47L2201.81,702.2z M2261.95,911.93h-54.47l-15.62-54.48h54.47L2261.95,911.93z
			 M2321.83,1120.75h-54.47l-15.36-53.57h54.47L2321.83,1120.75z M2291.77,772.11h-54.48l-15.62-54.48h54.48L2291.77,772.11z
			 M2311.82,842.02h-54.48l-15.62-54.48h54.48L2311.82,842.02z M2331.86,911.93h-54.48l-15.62-54.48h54.48L2331.86,911.93z
			 M2371.7,1050.84h-54.48l-15.36-53.57h54.48L2371.7,1050.84z"/>
	</g>
	<path d="M1195.99,1380.2c240.79,0,433.39,40.96,577.77,122.87c144.37,81.93,241.9,211.2,292.55,387.85
		c50.94,177.64,27.94,307.42-68.96,389.33c-96.92,81.93-266.27,122.87-508.05,122.87c-242.77,0-435.85-40.94-579.25-122.87
		c-143.39-81.9-240.56-211.69-291.5-389.33c-50.65-176.64-27.54-305.92,69.38-387.85C784.85,1421.16,954.19,1380.2,1195.99,1380.2z
		 M1415.44,2145.53c76.98,0,141.2-3.19,192.64-9.62c51.46-6.41,91.01-18.99,118.7-37.75c27.68-18.73,44.19-44.64,49.51-77.72
		c5.33-33.05,0.34-76.24-14.94-129.53c-15.28-53.29-35.06-96.45-59.35-129.53c-24.28-33.05-55.58-58.7-93.87-76.98
		c-38.31-18.25-85-30.58-140.14-37.01c-55.13-6.41-121.19-9.62-198.16-9.62s-141.19,3.21-192.64,9.62
		c-51.45,6.43-91.1,18.76-118.92,37.01c-27.84,18.27-44.4,43.92-49.72,76.98c-5.32,33.08-0.34,76.24,14.94,129.53
		c15.28,53.29,35.07,96.48,59.35,129.53c24.29,33.08,55.63,58.98,94.08,77.72c38.43,18.76,85.22,31.34,140.35,37.75
		C1272.42,2142.33,1338.47,2145.53,1415.44,2145.53z"/>
	<path d="M3493.64,1768.04c15.85,55.28,19.34,105.36,10.52,150.25c-8.84,44.92-29.7,83.15-62.58,114.72
		c-32.9,31.6-76.9,56.26-131.99,74.02c-55.11,17.76-121.15,26.65-198.12,26.65h-518.11l72.59,253.14h-304.95l-145.17-506.27h852.67
		c47.37,0,81.16-10.36,101.37-31.09c20.19-20.73,25.37-48.34,15.46-82.9c-9.9-34.53-30.85-61.92-62.79-82.16
		c-31.96-20.22-71.62-30.35-118.99-30.35h-852.67l128.95-257.57h621.74c76.98,0,148.18,9.13,213.62,27.38
		c65.42,18.27,123.55,43.67,174.34,76.24c50.79,32.57,93.54,71.56,128.27,116.94C3452.49,1662.45,3477.8,1712.78,3493.64,1768.04z"
		/>
	<path d="M4573.66,1791.72c121.39,0,220.09,22.46,296.13,67.36c76.03,44.92,127.08,112.76,153.11,203.55
		c14.43,50.33,19.54,95.74,15.36,136.19c-4.19,40.48-19.59,74.53-46.21,102.14c-26.63,27.64-64.7,48.85-114.24,63.65
		c-49.56,14.8-111.83,22.21-186.82,22.21h-922.24l123.87-254.62h749.05c36.5,0,61.52-5.67,75.06-17.02
		c13.52-11.33,16.61-29.83,9.25-55.51c-7.36-25.65-20.99-43.9-40.87-54.77c-19.9-10.85-48.11-16.28-84.61-16.28h-538.84
		c-64.16,0-121.4-6.9-171.74-20.73c-50.36-13.81-94.37-33.05-132.02-57.73c-37.67-24.66-68.92-54.52-93.77-89.56
		c-24.85-35.02-43.35-73.76-55.52-116.2c-13.3-46.37-17.25-88.57-11.87-126.57c5.39-37.98,21.29-70.31,47.7-96.96
		c26.4-26.65,64.37-47.37,113.92-62.17c49.53-14.8,111.8-22.2,186.82-22.2h860.07l-123.02,257.57h-686.87
		c-35.53,0-60.52,4.95-74.95,14.8c-14.45,9.88-17.98,27.64-10.62,53.29c7.36,25.67,21.15,43.67,41.4,54.03
		c20.22,10.36,48.12,15.54,83.65,15.54H4573.66z"/>
	<path d="M1572.66,1891.42c-15.94-55.59-46.63-96.27-92.06-122.05c-45.44-25.77-106.04-38.66-181.81-38.66
		c-76.09,0-129.38,12.89-159.87,38.66c-30.5,25.78-37.77,66.46-21.83,122.05c16.03,55.9,46.6,96.74,91.73,122.51
		c45.12,25.78,105.88,38.66,182.28,38.66c76.08,0,129.37-12.88,159.87-38.66C1581.45,1988.16,1588.69,1947.32,1572.66,1891.42z
		 M1463.97,1853.55c-8.38,7.08-23.01,10.62-43.91,10.62c-20.98,0-37.67-3.54-50.06-10.62c-12.39-7.08-20.79-18.3-25.19-33.65
		c-4.38-15.27-2.38-26.44,6-33.52c8.38-7.08,23.01-10.62,43.91-10.62c20.81,0,37.46,3.54,49.94,10.62
		c12.48,7.08,20.91,18.25,25.28,33.52C1474.33,1835.26,1472.34,1846.48,1463.97,1853.55z"/>
</g>
</svg>
