<?xml version="1.0" encoding="utf-8"?>
<!-- Generator: Adobe Illustrator 25.4.1, SVG Export Plug-In . SVG Version: 6.00 Build 0)  -->
<svg version="1.1" id="圖層_1" xmlns="http://www.w3.org/2000/svg" xmlns:xlink="http://www.w3.org/1999/xlink" x="0px" y="0px"
	 viewBox="0 0 5442.5 3061.4" style="enable-background:new 0 0 5442.5 3061.4;" xml:space="preserve">
<g>
	<path d="M4138.8,1744.3c-470.4,20.6-923.5-28.9-1347.6-143.4c4.4-8.7,7.1-18.4,7.7-28.5c3.1-52.3-11.3-99.1-42.9-140.8
		c-12.8-16.7-32.3-27.2-53.3-28.4c-52.3-3.1-99.1,11.3-140.8,42.9c-16.7,12.8-27.2,32.3-28.4,53.3c-0.4,7.5-0.5,15.1-0.2,22.4
		c-369-126.6-712.6-304.6-1022.2-530.6c-68.3-49.4-91.7-39.5-54.5,25.2s110,156,164.6,201.1c600,491.7,1358.9,758.5,2181.5,761.7
		c74.7,0.8,218.5-56,320.6-123.7C4225.1,1788.1,4231.8,1739.9,4138.8,1744.3z"/>
	<path d="M3403.1,2046c-405.8-7.8-800.4-96.6-1165.3-262.5c-37.7-17-55.9-2.5-41.1,33.5c14.9,35.9,52.1,79.5,83.4,96.5
		c311.9,166.4,649.1,265.7,995.9,294.5c34.8,3.2,94.4-32.4,133.1-78.5C3447.8,2083.4,3445,2046.5,3403.1,2046z"/>
	<path d="M3341.3,97.6c-70.1-57.5-176.1-27.3-205.2,58.7l-400,1181.6L3341.3,97.6L3341.3,97.6z"/>
	<path d="M3098,2643.4c-20.5-36.4-40.4-72.2-60.6-107.8c-8.6-15.1-14.4-34-27.1-44c-12.4-9.8-32-10.6-48.5-14.9
		c-51.6-13.6-102.3-29.9-149.1-56.2c-47.3-26.6-91.9-56.8-124.5-101.4c-13.1-17.8-23.5-37.3-26-59.8c0-0.1,0-0.2,0-0.3
		c-1.7-16,13.5-28.6,29.1-24.4l555.5,153.2c24.6,6.8,32.3,38.1,13.5,55.3c-0.1,0.1-0.3,0.2-0.4,0.4c-9,8.2-19.4,15-29.8,21.3
		c-24,14.5-30.6,33.1-17.8,58.1c7.1,13.9,16.8,26.6,25.9,40.6c23.7-13.4,46.2-26.3,69.3-39.4c7.9,14.9,15.3,29.1,23.1,43.9
		c-22,12.7-43.5,25.1-65.8,38c11.6,17,22.9,33.4,34.7,50.7c-49.7,28.4-98.9,56.5-148.7,84.9c-10.4-18.3-20.3-35.9-30.8-54.4
		c-15.4,8.6-30.3,16.9-45,25.3c-110.3,62.5-220.3,125.6-331.1,187.2c-96.1,53.5-198.9,67.5-306.6,47c-17.1-3.3-34.1-7.7-50.4-13.8
		c-28.3-10.5-56-8.1-83.5,1c-31.9,10.6-63.5,9.6-95.4,0.8c-43.6-12-87.1-24-130.6-36c-22.1-6.1-27.9-15.9-22.1-37.9
		c7.4-27.7,15.1-55.4,22.9-83c4.6-16.2,16.6-24.8,31.9-20.6c52.7,14.1,105.3,28.4,157.5,44.2c29.3,8.8,50.9,29.7,71,52.1
		c13.6,15.1,30.3,25.4,50.3,31.1c45.1,12.7,90,25.5,137.7,24.1c71.2-2,138.6-16.8,201-53c119.7-69.4,240.2-137.6,360.3-206.3
		C3091,2647.6,3094,2645.8,3098,2643.4z"/>
</g>
</svg>
