<?xml version="1.0" encoding="utf-8"?>
<!-- Generator: Adobe Illustrator 25.4.1, SVG Export Plug-In . SVG Version: 6.00 Build 0)  -->
<svg version="1.1" id="圖層_1" xmlns="http://www.w3.org/2000/svg" xmlns:xlink="http://www.w3.org/1999/xlink" x="0px" y="0px"
	 viewBox="0 0 5442.5 3061.4" style="enable-background:new 0 0 5442.5 3061.4;" xml:space="preserve">
<g>
	<path d="M1692,692.6c178,0,323.6,54.1,436.7,162.4c113.1,108.2,169.7,243.3,169.7,405.3c0,208.4-65.5,383.9-196.4,526.3
		c-130.9,142.4-304.6,213.6-521.1,213.6c-175.7,0-319.6-57.4-431.5-172.3c-112-114.8-168-252.7-168-413.4c0-108.5,27-219.9,81-334.2
		c54-114.3,135.2-207.4,243.8-279.5C1414.6,728.6,1543.3,692.6,1692,692.6z M1686.8,1932.9c87.3,0,173.4-23.4,258.4-70.2
		c85-46.8,151.9-111.3,200.7-193.4c48.8-82.1,73.2-166.5,73.2-253.2c0-122.9-32.9-234.6-98.6-335.1c-65.8-100.5-151-179.2-255.8-236
		c-104.8-56.9-201.7-85.3-290.7-85.3c-125.8,0-239.9,47.4-342.4,142.1c-102.5,94.7-153.7,212.5-153.7,353.1
		c0,179.7,62.6,337.6,187.8,473.7C1390.8,1864.9,1531.2,1932.9,1686.8,1932.9z"/>
	<path d="M2427.6,724.5v-12.9h361.8c128.6,0,222.1,14.4,280.4,43.1c58.3,28.7,100.8,64.5,127.5,107.4
		c26.7,42.8,40.1,99.3,40.1,169.5c0,107.5-37,188.3-111.1,242.4c-74.1,54-174.6,79.9-301.5,77.6v-12.9c80.4,0,145.7-24.7,196-74.1
		c50.2-49.4,75.4-114.3,75.4-194.7c0-62.6-12.2-118.1-36.6-166.7c-24.4-48.5-58.7-85.4-102.9-110.7
		c-44.2-25.3-111.7-37.9-202.4-37.9h-90.4V1840c0,61.4,6.9,98,20.7,109.7c13.8,11.8,39.9,17.6,78.4,17.6v12.9h-335.1v-12.9
		c59.7,0,89.6-27.3,89.6-81.8V835.5c0-44.7-5.7-74.4-17.2-89.1C2488.4,731.8,2464.3,724.5,2427.6,724.5z"/>
	<path d="M3970.2,727.9l60.3,158.5l-10.3,1.7c0-0.6-15.9-17.5-47.8-50.8c-31.9-33.3-68.3-59-109.4-77.1
		c-41.1-18.1-87.4-27.1-139.1-27.1c-86.7,0-155.5,24.8-206.3,74.5c-50.8,49.7-76.2,109.5-76.2,179.6c0,46.5,11.9,87.1,35.7,121.9
		c23.8,34.8,73.6,67.1,149.3,97.2c130.2,43.9,219.4,76.9,267.4,99c48,22.1,94.2,59.5,138.8,112.3c44.5,52.8,66.8,120.5,66.8,203.1
		c0,34.4-4,67.3-12.1,98.5c-8,31.3-21,61.4-38.8,90.3c-17.8,29-39.2,55.4-64.2,79.2c-25,23.8-50.4,41.9-76.2,54.2
		c-25.8,12.3-66.6,21.6-122.3,28c-55.7,6.3-92.5,9.5-110.2,9.5h-338.5v-368.7h12.9c1.1,122.3,29.8,207.6,86.1,255.8
		c56.3,48.2,143.8,72.4,262.7,72.4c107.9,0,189.9-25.5,245.9-76.7c56-51.1,84-112.5,84-184.3c0-43.6-9.8-80.8-29.3-111.5
		c-19.5-30.7-46.8-57.7-81.8-81c-35-23.3-101.3-51.6-198.9-85.1c-97-34.1-165.2-63.9-204.5-89.4c-39.4-25.5-72.3-64-98.7-115.3
		c-26.4-51.3-39.7-103.7-39.7-157.1c0-98.1,33.7-180.4,101.2-247c67.5-66.5,156-99.8,265.7-99.8c42.5,0,88.4,4.9,137.8,14.6
		c49.4,9.8,76.9,16.1,82.7,18.9C3965.6,727.4,3967.9,727.9,3970.2,727.9z"/>
</g>
<g>
	<path d="M186.1,2597.5c-12.1,0-23.2-2-33.6-6.1c-10.3-4.1-19.3-9.8-26.8-17.1c-7.5-7.3-13.4-15.9-17.6-25.7
		c-4.2-9.8-6.3-20.5-6.3-32.1c0-11.6,2.1-22.3,6.3-32.1c4.2-9.8,10.1-18.3,17.6-25.7c7.5-7.3,16.4-13,26.7-17.1
		c10.2-4.1,21.5-6.1,33.7-6.1c12.1,0,23.2,2,33.3,6c10.2,4,19.1,9.6,26.7,17c7.6,7.3,13.5,15.9,17.6,25.7c4.1,9.8,6.2,20.6,6.2,32.3
		c0,11.8-2.1,22.5-6.2,32.3c-4.1,9.8-10,18.3-17.6,25.7c-7.6,7.3-16.5,13-26.7,17C209.3,2595.5,198.2,2597.5,186.1,2597.5z
		 M186.1,2577.4c8.7,0,16.8-1.5,24.3-4.5c7.5-3,13.9-7.3,19.4-12.8c5.5-5.5,9.8-11.9,12.9-19.3c3.1-7.4,4.6-15.4,4.6-24.2
		c0-8.7-1.5-16.8-4.6-24.2c-3.1-7.4-7.4-13.8-12.9-19.3c-5.5-5.5-12-9.8-19.4-12.8c-7.5-3-15.6-4.5-24.3-4.5
		c-8.9,0-17.1,1.5-24.5,4.5c-7.5,3-14,7.3-19.6,12.8c-5.6,5.5-9.9,11.9-13,19.3c-3.1,7.4-4.6,15.5-4.6,24.2c0,8.7,1.5,16.8,4.6,24.2
		c3.1,7.4,7.4,13.8,13,19.3c5.6,5.5,12.1,9.8,19.6,12.8C169,2575.9,177.2,2577.4,186.1,2577.4z"/>
	<path d="M349.8,2595.7v-158.2h61.7c13.9,0,25.7,2.2,35.5,6.6c9.8,4.4,17.3,10.7,22.6,19c5.3,8.3,7.9,18.2,7.9,29.6
		c0,11.5-2.6,21.3-7.9,29.5c-5.3,8.2-12.8,14.5-22.6,19c-9.8,4.4-21.6,6.7-35.5,6.7h-49.3l10.2-10.6v58.5H349.8z M372.4,2539.4
		l-10.2-11.3h48.6c14.5,0,25.4-3.1,32.9-9.3c7.5-6.2,11.2-14.9,11.2-26.2c0-11.3-3.7-20-11.2-26.2c-7.5-6.2-18.4-9.3-32.9-9.3h-48.6
		l10.2-11.3V2539.4z"/>
	<path d="M555.9,2595.7v-158.2h111.7v19.7h-89.1V2576h92.2v19.7H555.9z M576.5,2525v-19.2h81.4v19.2H576.5z"/>
	<path d="M752.6,2595.7v-158.2h61.7c20.5,0,36.6,4.9,48.4,14.6c11.8,9.7,17.6,23.2,17.6,40.6c0,11.5-2.6,21.3-7.9,29.5
		c-5.3,8.2-12.8,14.5-22.6,18.9c-9.8,4.4-21.6,6.6-35.5,6.6H765l10.2-10.4v58.5H752.6z M775.2,2539.4l-10.2-11.1h48.6
		c14.5,0,25.4-3.1,32.9-9.4c7.5-6.3,11.2-15,11.2-26.3c0-11.3-3.7-20-11.2-26.2c-7.5-6.2-18.4-9.3-32.9-9.3H765l10.2-11.3V2539.4z
		 M858.4,2595.7l-40.2-57.4h24.2l40.7,57.4H858.4z"/>
	<path d="M938.2,2595.7l71.7-158.2h22.4l71.9,158.2h-23.7l-64-145.6h9l-64,145.6H938.2z M968.7,2556.2l6.1-18.1h89.1l6.6,18.1H968.7
		z"/>
	<path d="M1196.4,2595.7v-138.6h-54.3v-19.7H1273v19.7h-54.3v138.6H1196.4z"/>
	<path d="M1342.8,2595.7v-158.2h22.6v158.2H1342.8z"/>
	<path d="M1529.6,2597.5c-12.1,0-23.2-2-33.6-6.1c-10.3-4.1-19.3-9.8-26.8-17.1c-7.5-7.3-13.4-15.9-17.6-25.7
		c-4.2-9.8-6.3-20.5-6.3-32.1c0-11.6,2.1-22.3,6.3-32.1c4.2-9.8,10.1-18.3,17.6-25.7c7.5-7.3,16.4-13,26.7-17.1
		c10.2-4.1,21.5-6.1,33.7-6.1c12.1,0,23.2,2,33.3,6c10.2,4,19.1,9.6,26.7,17c7.6,7.3,13.5,15.9,17.6,25.7c4.1,9.8,6.2,20.6,6.2,32.3
		c0,11.8-2.1,22.5-6.2,32.3c-4.1,9.8-10,18.3-17.6,25.7c-7.6,7.3-16.5,13-26.7,17C1552.7,2595.5,1541.6,2597.5,1529.6,2597.5z
		 M1529.6,2577.4c8.7,0,16.8-1.5,24.3-4.5c7.5-3,13.9-7.3,19.4-12.8c5.5-5.5,9.8-11.9,12.9-19.3c3.1-7.4,4.6-15.4,4.6-24.2
		c0-8.7-1.5-16.8-4.6-24.2c-3.1-7.4-7.4-13.8-12.9-19.3c-5.5-5.5-12-9.8-19.4-12.8c-7.5-3-15.6-4.5-24.3-4.5
		c-8.9,0-17.1,1.5-24.5,4.5c-7.5,3-14,7.3-19.6,12.8c-5.6,5.5-9.9,11.9-13,19.3c-3.1,7.4-4.6,15.5-4.6,24.2c0,8.7,1.5,16.8,4.6,24.2
		c3.1,7.4,7.4,13.8,13,19.3c5.6,5.5,12.1,9.8,19.6,12.8C1512.5,2575.9,1520.7,2577.4,1529.6,2577.4z"/>
	<path d="M1693.2,2595.7v-158.2h18.5l104.7,130h-9.7v-130h22.6v158.2h-18.5l-104.7-130h9.7v130H1693.2z"/>
	<path d="M1968.1,2597.5c-12.1,0-23.6-1.8-34.6-5.5c-11-3.7-19.7-8.5-26-14.4l8.4-17.6c6,5.3,13.7,9.6,23.1,13.1
		c9.3,3.5,19.1,5.2,29.2,5.2c9.2,0,16.7-1.1,22.4-3.2c5.7-2.1,9.9-5,12.7-8.7c2.7-3.7,4.1-7.9,4.1-12.5c0-5.4-1.8-9.8-5.3-13.1
		c-3.5-3.3-8.1-6-13.8-8c-5.7-2-11.9-3.8-18.6-5.3c-6.8-1.5-13.6-3.3-20.5-5.3c-6.9-2-13.1-4.6-18.8-7.8s-10.2-7.4-13.7-12.8
		c-3.5-5.3-5.2-12.2-5.2-20.7c0-8.1,2.1-15.6,6.4-22.5c4.3-6.9,10.9-12.4,19.9-16.5c9-4.1,20.4-6.2,34.2-6.2
		c9.2,0,18.3,1.2,27.4,3.6c9,2.4,16.9,5.9,23.5,10.4l-7.5,18.1c-6.8-4.5-13.9-7.8-21.5-9.8c-7.5-2-14.8-3.1-21.9-3.1
		c-8.9,0-16.2,1.1-21.9,3.4c-5.7,2.3-9.9,5.3-12.5,9c-2.6,3.8-4,8-4,12.7c0,5.6,1.8,10,5.3,13.3c3.5,3.3,8.1,6,13.8,7.9
		c5.7,2,11.9,3.7,18.7,5.3c6.8,1.6,13.6,3.4,20.5,5.3c6.9,2,13.1,4.5,18.8,7.7c5.7,3.2,10.2,7.4,13.7,12.7
		c3.5,5.3,5.2,12.1,5.2,20.3c0,8-2.2,15.4-6.6,22.3c-4.4,6.9-11.1,12.4-20.2,16.5C1993.5,2595.4,1982,2597.5,1968.1,2597.5z"/>
	<path d="M2213.6,2595.7v-158.2h61.7c13.9,0,25.7,2.2,35.5,6.6c9.8,4.4,17.3,10.7,22.6,19c5.3,8.3,7.9,18.2,7.9,29.6
		c0,11.5-2.6,21.3-7.9,29.5c-5.3,8.2-12.8,14.5-22.6,19c-9.8,4.4-21.6,6.7-35.5,6.7h-49.3l10.2-10.6v58.5H2213.6z M2236.2,2539.4
		l-10.2-11.3h48.6c14.5,0,25.4-3.1,32.9-9.3c7.5-6.2,11.2-14.9,11.2-26.2c0-11.3-3.7-20-11.2-26.2c-7.5-6.2-18.4-9.3-32.9-9.3h-48.6
		l10.2-11.3V2539.4z"/>
	<path d="M2419.8,2595.7v-158.2h61.7c20.5,0,36.6,4.9,48.4,14.6c11.8,9.7,17.6,23.2,17.6,40.6c0,11.5-2.6,21.3-7.9,29.5
		c-5.3,8.2-12.8,14.5-22.6,18.9c-9.8,4.4-21.6,6.6-35.5,6.6h-49.3l10.2-10.4v58.5H2419.8z M2442.4,2539.4l-10.2-11.1h48.6
		c14.5,0,25.4-3.1,32.9-9.4c7.5-6.3,11.2-15,11.2-26.3c0-11.3-3.7-20-11.2-26.2c-7.5-6.2-18.4-9.3-32.9-9.3h-48.6l10.2-11.3V2539.4z
		 M2525.6,2595.7l-40.2-57.4h24.2l40.7,57.4H2525.6z"/>
	<path d="M2629.3,2595.7v-158.2H2741v19.7h-89.1V2576h92.2v19.7H2629.3z M2649.9,2525v-19.2h81.4v19.2H2649.9z"/>
	<path d="M2872.1,2597.5c-12.1,0-23.6-1.8-34.6-5.5c-11-3.7-19.7-8.5-26-14.4l8.4-17.6c6,5.3,13.7,9.6,23.1,13.1
		c9.3,3.5,19.1,5.2,29.2,5.2c9.2,0,16.7-1.1,22.4-3.2c5.7-2.1,9.9-5,12.7-8.7c2.7-3.7,4.1-7.9,4.1-12.5c0-5.4-1.8-9.8-5.3-13.1
		c-3.5-3.3-8.1-6-13.8-8c-5.7-2-11.9-3.8-18.7-5.3c-6.8-1.5-13.6-3.3-20.5-5.3c-6.9-2-13.1-4.6-18.8-7.8s-10.2-7.4-13.7-12.8
		c-3.5-5.3-5.2-12.2-5.2-20.7c0-8.1,2.1-15.6,6.4-22.5c4.3-6.9,10.9-12.4,19.9-16.5c9-4.1,20.4-6.2,34.2-6.2
		c9.2,0,18.3,1.2,27.4,3.6c9,2.4,16.9,5.9,23.5,10.4l-7.5,18.1c-6.8-4.5-13.9-7.8-21.5-9.8c-7.5-2-14.8-3.1-21.9-3.1
		c-8.9,0-16.2,1.1-21.9,3.4c-5.7,2.3-9.9,5.3-12.5,9c-2.6,3.8-4,8-4,12.7c0,5.6,1.8,10,5.3,13.3c3.5,3.3,8.1,6,13.8,7.9
		c5.7,2,11.9,3.7,18.7,5.3c6.8,1.6,13.6,3.4,20.5,5.3c6.9,2,13.1,4.5,18.8,7.7c5.7,3.2,10.2,7.4,13.7,12.7
		c3.5,5.3,5.2,12.1,5.2,20.3c0,8-2.2,15.4-6.6,22.3c-4.4,6.9-11.1,12.4-20.2,16.5C2897.5,2595.4,2886,2597.5,2872.1,2597.5z"/>
	<path d="M3011.6,2595.7v-158.2h111.7v19.7h-89.1V2576h92.2v19.7H3011.6z M3032.2,2525v-19.2h81.4v19.2H3032.2z"/>
	<path d="M3208.3,2595.7v-158.2h18.5l104.7,130h-9.7v-130h22.6v158.2h-18.5l-104.7-130h9.7v130H3208.3z"/>
	<path d="M3507.8,2597.5c-12.1,0-23.2-2-33.3-6c-10.2-4-19-9.6-26.4-17c-7.5-7.3-13.3-15.9-17.5-25.7c-4.2-9.8-6.3-20.6-6.3-32.3
		c0-11.8,2.1-22.5,6.3-32.3c4.2-9.8,10.1-18.3,17.6-25.7c7.5-7.3,16.4-13,26.6-17c10.2-4,21.3-6,33.3-6c12.2,0,23.5,2.1,33.8,6.2
		c10.3,4.1,19.1,10.3,26.3,18.4l-14.7,14.2c-6-6.3-12.8-11-20.3-14.1c-7.5-3.1-15.6-4.6-24.2-4.6c-8.9,0-17.1,1.5-24.8,4.5
		c-7.6,3-14.2,7.2-19.8,12.7c-5.6,5.4-9.9,11.9-13,19.3c-3.1,7.5-4.6,15.6-4.6,24.3c0,8.7,1.5,16.8,4.6,24.3
		c3.1,7.5,7.4,13.9,13,19.3c5.6,5.4,12.2,9.6,19.8,12.7c7.6,3,15.9,4.5,24.8,4.5c8.6,0,16.7-1.5,24.2-4.6
		c7.5-3.1,14.3-7.9,20.3-14.4l14.7,14.2c-7.2,8.1-16,14.3-26.3,18.5C3531.5,2595.4,3520.2,2597.5,3507.8,2597.5z"/>
	<path d="M3643.4,2595.7v-158.2h111.7v19.7H3666V2576h92.2v19.7H3643.4z M3664,2525v-19.2h81.4v19.2H3664z"/>
	<path d="M3992.2,2597.5c-12.1,0-23.6-1.8-34.6-5.5c-11-3.7-19.7-8.5-26-14.4l8.4-17.6c6,5.3,13.7,9.6,23.1,13.1
		c9.3,3.5,19.1,5.2,29.2,5.2c9.2,0,16.7-1.1,22.4-3.2c5.7-2.1,9.9-5,12.7-8.7c2.7-3.7,4.1-7.9,4.1-12.5c0-5.4-1.8-9.8-5.3-13.1
		c-3.5-3.3-8.1-6-13.8-8c-5.7-2-11.9-3.8-18.6-5.3c-6.8-1.5-13.6-3.3-20.5-5.3c-6.9-2-13.1-4.6-18.8-7.8
		c-5.7-3.2-10.2-7.4-13.7-12.8c-3.5-5.3-5.2-12.2-5.2-20.7c0-8.1,2.1-15.6,6.4-22.5c4.3-6.9,10.9-12.4,19.9-16.5
		c9-4.1,20.4-6.2,34.2-6.2c9.2,0,18.3,1.2,27.4,3.6c9,2.4,16.9,5.9,23.5,10.4l-7.5,18.1c-6.8-4.5-13.9-7.8-21.5-9.8
		c-7.5-2-14.8-3.1-21.9-3.1c-8.9,0-16.2,1.1-21.9,3.4c-5.7,2.3-9.9,5.3-12.5,9c-2.6,3.8-4,8-4,12.7c0,5.6,1.8,10,5.3,13.3
		c3.5,3.3,8.1,6,13.8,7.9c5.7,2,11.9,3.7,18.7,5.3c6.8,1.6,13.6,3.4,20.5,5.3c6.9,2,13.1,4.5,18.8,7.7s10.2,7.4,13.7,12.7
		c3.5,5.3,5.2,12.1,5.2,20.3c0,8-2.2,15.4-6.6,22.3c-4.4,6.9-11.1,12.4-20.2,16.5C4017.6,2595.4,4006.1,2597.5,3992.2,2597.5z"/>
	<path d="M4131.7,2595.7v-158.2h111.7v19.7h-89.1V2576h92.2v19.7H4131.7z M4152.3,2525v-19.2h81.4v19.2H4152.3z"/>
	<path d="M4328.4,2595.7v-158.2h61.7c20.5,0,36.6,4.9,48.4,14.6c11.8,9.7,17.6,23.2,17.6,40.6c0,11.5-2.6,21.3-7.9,29.5
		c-5.3,8.2-12.8,14.5-22.6,18.9c-9.8,4.4-21.6,6.6-35.5,6.6h-49.3l10.2-10.4v58.5H4328.4z M4351,2539.4l-10.2-11.1h48.6
		c14.5,0,25.4-3.1,32.9-9.4c7.5-6.3,11.2-15,11.2-26.3c0-11.3-3.7-20-11.2-26.2c-7.5-6.2-18.4-9.3-32.9-9.3h-48.6l10.2-11.3V2539.4z
		 M4434.2,2595.7l-40.2-57.4h24.2l40.7,57.4H4434.2z"/>
	<path d="M4583.6,2595.7l-69.6-158.2h24.4l64,146h-14l64.4-146h22.6l-69.4,158.2H4583.6z"/>
	<path d="M4740.7,2595.7v-158.2h22.6v158.2H4740.7z"/>
	<path d="M4926.8,2597.5c-12.1,0-23.2-2-33.3-6c-10.2-4-19-9.6-26.4-17c-7.5-7.3-13.3-15.9-17.5-25.7c-4.2-9.8-6.3-20.6-6.3-32.3
		c0-11.8,2.1-22.5,6.3-32.3c4.2-9.8,10.1-18.3,17.6-25.7c7.5-7.3,16.4-13,26.6-17c10.2-4,21.3-6,33.3-6c12.2,0,23.5,2.1,33.8,6.2
		c10.3,4.1,19.1,10.3,26.3,18.4l-14.7,14.2c-6-6.3-12.8-11-20.3-14.1c-7.5-3.1-15.6-4.6-24.2-4.6c-8.9,0-17.1,1.5-24.8,4.5
		c-7.6,3-14.2,7.2-19.8,12.7c-5.6,5.4-9.9,11.9-13,19.3c-3.1,7.5-4.6,15.6-4.6,24.3c0,8.7,1.5,16.8,4.6,24.3
		c3.1,7.5,7.4,13.9,13,19.3c5.6,5.4,12.2,9.6,19.8,12.7c7.6,3,15.9,4.5,24.8,4.5c8.6,0,16.7-1.5,24.2-4.6
		c7.5-3.1,14.3-7.9,20.3-14.4l14.7,14.2c-7.2,8.1-16,14.3-26.3,18.5C4950.5,2595.4,4939.1,2597.5,4926.8,2597.5z"/>
	<path d="M5062.4,2595.7v-158.2h111.7v19.7H5085V2576h92.2v19.7H5062.4z M5083,2525v-19.2h81.4v19.2H5083z"/>
	<path d="M5305.2,2597.5c-12.1,0-23.6-1.8-34.6-5.5c-11-3.7-19.7-8.5-26-14.4l8.4-17.6c6,5.3,13.7,9.6,23.1,13.1
		c9.3,3.5,19.1,5.2,29.2,5.2c9.2,0,16.7-1.1,22.4-3.2c5.7-2.1,9.9-5,12.7-8.7c2.7-3.7,4.1-7.9,4.1-12.5c0-5.4-1.8-9.8-5.3-13.1
		c-3.5-3.3-8.1-6-13.8-8c-5.7-2-11.9-3.8-18.6-5.3c-6.8-1.5-13.6-3.3-20.5-5.3c-6.9-2-13.1-4.6-18.8-7.8s-10.2-7.4-13.7-12.8
		c-3.5-5.3-5.2-12.2-5.2-20.7c0-8.1,2.1-15.6,6.4-22.5c4.3-6.9,10.9-12.4,19.9-16.5c9-4.1,20.4-6.2,34.2-6.2
		c9.2,0,18.3,1.2,27.4,3.6c9,2.4,16.9,5.9,23.5,10.4l-7.5,18.1c-6.8-4.5-13.9-7.8-21.5-9.8c-7.5-2-14.8-3.1-21.9-3.1
		c-8.9,0-16.2,1.1-21.9,3.4c-5.7,2.3-9.9,5.3-12.5,9c-2.6,3.8-4,8-4,12.7c0,5.6,1.8,10,5.3,13.3c3.5,3.3,8.1,6,13.8,7.9
		c5.7,2,11.9,3.7,18.6,5.3c6.8,1.6,13.6,3.4,20.5,5.3c6.9,2,13.1,4.5,18.8,7.7c5.7,3.2,10.2,7.4,13.7,12.7
		c3.5,5.3,5.2,12.1,5.2,20.3c0,8-2.2,15.4-6.6,22.3c-4.4,6.9-11.1,12.4-20.2,16.5C5330.5,2595.4,5319.1,2597.5,5305.2,2597.5z"/>
</g>
</svg>
